<svg version="1.1" id="Layer_1" xmlns="http://www.w3.org/2000/svg" xmlns:xlink="http://www.w3.org/1999/xlink" x="0px" y="0px"
	 width="100%" viewBox="0 0 521 412" enable-background="new 0 0 521 412" xml:space="preserve">
<path fill="#0B3543" opacity="1.000000" stroke="none" 
	d="
M521.000000,413.000000 
	C347.717499,413.000000 174.434967,413.000000 1.076231,413.000000 
	C1.076231,275.757782 1.076231,138.515518 1.076231,1.000000 
	C174.024811,1.000000 347.049744,1.000000 520.537292,1.465013 
	C520.999939,138.953354 520.999939,275.976685 521.000000,413.000000 
M288.239105,204.797745 
	C287.735779,205.143509 287.232452,205.489273 286.142242,206.009369 
	C285.454529,206.440201 284.766815,206.871017 283.403534,207.430527 
	C278.273468,210.631165 273.143402,213.831802 267.386261,216.742020 
	C261.887360,207.166901 256.388489,197.591766 251.734726,188.037628 
	C252.851624,187.947601 253.968506,187.857590 256.000427,187.922531 
	C277.164368,187.949738 298.328583,188.044022 319.492157,187.970657 
	C327.781006,187.941925 335.754181,186.469131 342.535309,181.166428 
	C349.026520,176.090439 350.283875,169.014450 345.729858,162.185272 
	C342.048279,156.664398 336.727905,153.629852 329.685272,152.082077 
	C328.121338,151.389603 326.557434,150.697113 324.453400,149.603668 
	C322.488098,149.032822 320.522766,148.461975 318.557465,147.891144 
	C318.083008,149.693634 317.237762,151.488815 317.202118,153.299942 
	C317.085449,159.227249 317.407593,165.163757 317.268494,171.089844 
	C317.196869,174.140030 316.505341,177.175659 315.144989,180.207611 
	C305.367340,180.207550 295.589691,180.207489 285.570923,179.405716 
	C285.497101,178.853348 285.423248,178.300980 285.774841,177.220200 
	C286.104248,176.629456 286.433655,176.038696 287.035767,175.387253 
	C287.203522,175.233841 287.221436,175.064545 287.532257,174.283447 
	C288.415802,172.543335 289.299347,170.803223 290.714813,168.667313 
	C300.099396,152.367630 309.580566,136.122421 318.821259,119.741554 
	C322.542450,113.144997 324.960785,106.041817 324.272614,98.263008 
	C323.432220,88.763634 316.663147,82.826187 307.522125,85.349228 
	C301.235565,87.084396 295.705170,91.559319 289.899689,94.843727 
	C289.899689,94.843727 289.929962,94.778961 289.363556,95.005882 
	C288.844910,95.627243 288.326263,96.248596 287.248108,97.004707 
	C286.722382,97.557747 286.196655,98.110779 285.047394,98.918549 
	C281.885345,101.301994 283.279114,103.000534 285.898071,104.492012 
	C292.531921,108.269920 299.232208,111.937325 305.763428,115.884674 
	C307.279816,116.801147 308.227722,118.658119 309.090912,120.722076 
	C304.412323,129.196381 299.733734,137.670700 294.326660,146.025238 
	C291.939911,142.561813 289.553131,139.098373 286.990417,134.976166 
	C276.957306,117.912567 267.225250,100.659782 256.698242,83.906548 
	C253.737350,79.194450 248.961731,75.067223 244.111633,72.212433 
	C233.770645,66.125656 223.600357,71.145226 222.148880,83.164856 
	C221.373520,89.585579 222.878220,96.281639 223.274536,103.584641 
	C223.940536,105.363388 224.606552,107.142143 225.544250,109.646515 
	C229.719177,107.075386 233.325485,104.854454 237.617401,102.518036 
	C242.806625,99.376503 247.995834,96.234970 253.765915,93.569054 
	C259.171234,102.697411 264.576538,111.825768 269.140228,121.370804 
	C267.181274,121.513138 265.224152,121.738899 263.263000,121.782944 
	C255.870560,121.948982 248.476791,122.055908 240.141205,122.076485 
	C227.031845,122.080109 213.889771,121.534874 200.826630,122.313705 
	C194.066681,122.716743 186.944351,124.433998 180.874054,127.384880 
	C170.137619,132.604034 169.036148,144.119736 178.305603,151.691162 
	C182.812546,155.372467 188.588928,157.499619 194.399597,160.863892 
	C194.927399,160.919983 195.455185,160.976074 196.633255,161.314621 
	C203.467255,163.290283 203.824417,163.048340 203.804871,156.197922 
	C203.785416,149.382980 203.834869,142.565002 203.641388,135.754425 
	C203.525024,131.658386 205.235245,130.131119 209.290924,130.251801 
	C216.266159,130.459381 223.255737,130.193054 230.230194,130.413803 
	C232.021744,130.470505 233.779205,131.603714 235.135895,132.765213 
	C234.826279,133.356415 234.516678,133.947617 233.953995,134.597534 
	C233.796936,134.740265 233.781433,134.897034 233.434601,135.650055 
	C231.934341,138.423889 230.434082,141.197723 228.447952,144.433868 
	C219.643188,159.727554 210.723160,174.956528 202.084457,190.343460 
	C198.037216,197.552231 195.417801,205.294067 196.799332,213.779449 
	C197.660324,219.067612 200.393860,223.031418 205.675293,224.858490 
	C212.669983,227.278320 222.757263,223.911057 229.006683,217.104523 
	C230.067047,216.077301 231.127396,215.050095 232.061218,213.922989 
	C232.061218,213.922989 231.952301,214.041183 232.479614,213.998505 
	C232.636139,213.917221 232.792648,213.835953 233.506577,213.634750 
	C234.011887,213.078201 234.517197,212.521652 235.599289,211.692276 
	C239.198502,208.650253 237.274826,207.118820 233.653259,205.468414 
	C233.091476,205.263901 232.529709,205.059402 231.534134,204.453262 
	C230.505066,203.889771 229.476013,203.326279 228.007538,202.230545 
	C222.163116,199.134750 216.318695,196.038956 210.545013,192.181458 
	C215.663895,182.834091 220.782776,173.486725 226.671204,164.331268 
	C228.744507,167.216827 230.817810,170.102386 233.026047,173.696945 
	C242.714966,190.392166 251.995071,207.346176 262.311523,223.644165 
	C265.989197,229.454208 271.531250,234.705811 277.375610,238.375565 
	C285.929810,243.746857 294.743927,239.627579 297.968109,230.050827 
	C300.455933,222.661331 299.577545,215.266998 297.762878,207.464676 
	C297.734680,207.140244 297.592499,206.877289 297.297791,206.102325 
	C297.184113,205.736679 297.070404,205.371048 296.997925,204.365585 
	C296.729736,203.801392 296.461548,203.237213 296.095642,202.335358 
	C296.095642,202.335358 295.900421,202.043030 295.666382,201.513870 
	C294.986816,201.592453 294.307251,201.671036 293.069489,201.951782 
	C292.393250,202.350449 291.716980,202.749100 290.484314,203.296524 
	C289.909088,203.778046 289.333893,204.259552 288.824890,204.773010 
	C288.824890,204.773010 288.856567,204.706650 288.239105,204.797745 
M234.952072,317.089508 
	C234.952072,317.089508 234.829178,317.165039 234.752869,316.722473 
	C234.166153,316.469421 233.579422,316.216339 232.140137,315.955811 
	C224.558990,316.018280 223.317078,317.404541 224.471085,325.344208 
	C224.354706,326.597809 224.238327,327.851410 224.130508,329.822021 
	C225.856445,334.766479 230.080994,333.752563 233.154831,332.644562 
	C237.267700,331.161926 236.401840,327.531036 234.829941,323.505554 
	C234.908401,322.720367 234.986847,321.935150 235.492996,320.448059 
	C235.620209,319.916565 235.747406,319.385071 235.902756,318.415283 
	C235.540543,317.989197 235.178329,317.563110 234.952072,317.089508 
M143.334000,316.014160 
	C142.901657,315.947235 142.469315,315.880280 141.789581,315.650085 
	C141.482666,315.561493 141.207001,315.618744 140.177521,315.923096 
	C134.860855,317.009979 134.136124,318.298859 135.522110,325.686462 
	C135.718506,326.402771 135.914902,327.119080 135.603683,328.380676 
	C136.308258,329.892944 136.654129,332.228455 137.800095,332.727753 
	C139.594040,333.509399 141.928909,333.049622 144.558228,333.242584 
	C148.296722,331.603271 148.269089,328.949036 146.275528,325.409302 
	C146.194046,325.259216 146.112564,325.109131 145.988480,324.145264 
	C145.951874,323.062469 145.915283,321.979675 145.997238,320.450836 
	C145.997238,320.450836 146.119141,320.005707 146.431747,319.767548 
	C146.256088,319.200317 146.080429,318.633118 145.458160,317.814178 
	C145.216141,317.367554 144.974136,316.920898 144.664749,316.225433 
	C144.477722,316.001312 144.252045,315.951019 143.334000,316.014160 
M479.721375,278.459290 
	C480.171143,278.959717 480.620941,279.460114 481.461853,280.188629 
	C481.719940,280.352722 481.939178,280.558258 482.234192,281.462372 
	C482.458221,282.548126 482.682281,283.633850 482.160492,284.860352 
	C478.045990,286.310333 480.279938,288.499847 481.913879,289.862976 
	C485.792236,293.098602 490.143707,292.775635 495.114197,290.453278 
	C495.547852,289.752472 495.981506,289.051697 496.594910,287.606781 
	C499.345520,278.700836 489.088593,279.934753 485.639526,274.341248 
	C489.912323,274.959503 493.044037,275.412659 496.755798,275.949738 
	C494.689209,269.929291 491.443359,268.127380 486.024109,269.010101 
	C481.488098,269.748871 479.806396,272.213623 479.721375,278.459290 
M409.632477,287.011017 
	C410.949371,288.213959 412.266235,289.416870 413.845795,290.684357 
	C413.845795,290.684357 414.034546,290.878052 414.246979,291.376434 
	C415.167511,291.583191 416.088043,291.789948 417.880646,292.000275 
	C419.912140,291.967010 421.943665,291.933746 424.497711,292.141174 
	C425.982117,291.063171 427.466522,289.985199 429.197083,288.372467 
	C429.770660,287.577667 430.344208,286.782867 431.469116,285.689423 
	C431.504395,284.086395 431.539673,282.483398 431.314209,280.319824 
	C431.162201,279.936768 431.010193,279.553711 431.096283,278.539185 
	C430.818359,277.002563 430.540436,275.465942 429.860992,273.474030 
	C429.215240,272.697906 428.569489,271.921783 427.765015,270.550659 
	C426.499939,270.059326 425.234894,269.568024 423.099152,269.057709 
	C421.069855,269.053650 419.040527,269.049561 416.510956,268.816193 
	C415.326385,269.519073 414.141815,270.221985 412.751770,271.154266 
	C412.751770,271.154266 412.463593,271.262848 411.818451,271.453552 
	C411.326538,272.151978 410.834625,272.850433 410.179199,274.195190 
	C409.678802,275.440979 409.178406,276.686798 408.207092,278.307678 
	C408.341278,279.899231 408.475464,281.490753 408.868866,283.701019 
	C409.135071,284.554169 409.401276,285.407349 409.632477,287.011017 
M314.308807,279.537842 
	C314.292969,277.205688 314.590485,274.810486 314.139069,272.565918 
	C313.884369,271.299255 312.396851,270.280518 311.464661,269.150085 
	C310.437744,270.322144 308.924805,271.341797 308.498260,272.702118 
	C307.864624,274.722717 307.999817,276.984406 307.807770,279.143463 
	C307.376282,279.228485 306.944794,279.313477 306.513336,279.398499 
	C304.559875,276.582001 302.830536,273.562866 300.550751,271.041473 
	C299.535156,269.918274 297.322235,269.210632 295.822968,269.437805 
	C294.899536,269.577728 293.721252,271.810059 293.654144,273.152771 
	C293.404877,278.137695 293.371918,283.156647 293.710175,288.132080 
	C293.799683,289.448578 295.510742,290.654846 296.477203,291.911743 
	C297.473083,290.569458 298.902618,289.357788 299.356079,287.852173 
	C299.934357,285.931976 299.723755,283.774170 299.853241,281.718811 
	C302.999664,284.191528 304.710602,287.201538 306.996155,289.682129 
	C308.135956,290.919189 310.382294,291.796265 312.020508,291.647980 
	C312.894501,291.568848 313.939331,289.027069 314.193481,287.479584 
	C314.566559,285.207428 314.300598,282.830353 314.308807,279.537842 
M269.706146,287.247589 
	C269.489746,284.129242 270.735077,282.699677 274.061615,282.831299 
	C277.297089,282.959290 277.868683,284.717255 277.836182,287.399323 
	C277.810883,289.490326 277.419647,291.985107 280.837463,291.946136 
	C284.148682,291.908386 283.870697,289.596649 283.862915,287.396851 
	C283.846497,282.738037 284.075317,278.060883 283.706665,273.430817 
	C283.587708,271.936493 281.915009,270.565887 280.953064,269.138672 
	C279.897064,270.470795 278.130096,271.708008 277.936859,273.155273 
	C277.563965,275.948608 277.261902,277.878601 273.724335,277.896484 
	C270.114594,277.914703 269.978241,275.841156 269.542236,273.128235 
	C269.306580,271.661865 267.531647,270.442871 266.451080,269.112244 
	C265.528381,270.420105 263.897858,271.682190 263.809814,273.044067 
	C263.488434,278.014923 263.488708,283.031403 263.806976,288.002594 
	C263.894592,289.370361 265.511353,290.640198 266.426483,291.954987 
	C267.514038,290.656677 268.601562,289.358368 269.706146,287.247589 
M96.661316,271.123413 
	C91.128433,276.344391 90.350266,283.246796 94.725708,288.292023 
	C98.725510,292.904083 106.752129,293.539490 111.384941,289.610809 
	C116.303589,285.439728 117.013580,278.119659 112.989372,273.069000 
	C109.371208,268.527954 103.889282,267.694641 96.661316,271.123413 
M377.637573,284.888153 
	C378.311646,286.033020 378.845001,287.295288 379.684753,288.301910 
	C382.925690,292.187042 389.744751,293.356201 394.336548,290.918579 
	C398.928040,288.481110 401.378845,282.927124 400.156097,277.730713 
	C398.905609,272.416534 394.516327,268.989899 388.915894,268.955811 
	C380.459930,268.904327 375.981964,274.824249 377.637573,284.888153 
M340.506012,270.027832 
	C334.346222,267.930969 329.337646,268.996979 325.987335,273.117920 
	C322.919861,276.890930 322.547394,282.593323 325.100525,286.695465 
	C327.745636,290.945404 332.303040,292.909454 337.636353,291.963165 
	C342.626312,291.077759 345.669586,287.880737 346.712128,283.120422 
	C347.899017,277.701263 346.033783,273.289764 340.506012,270.027832 
M75.113197,269.083557 
	C63.991974,269.102722 65.531532,268.232117 65.409111,278.538574 
	C65.385468,280.529083 65.136864,282.566589 65.471748,284.499298 
	C65.905853,287.004639 66.212135,291.052551 67.640068,291.587097 
	C72.386841,293.364044 70.498856,287.792816 72.846840,285.578217 
	C74.123154,287.425690 74.954895,289.580292 76.525299,290.633789 
	C78.076500,291.674377 80.374374,291.601959 83.637268,292.290619 
	C82.002151,289.119141 80.924393,287.599487 80.448326,285.910248 
	C80.115486,284.729279 80.152168,283.006989 80.800774,282.056824 
	C85.393425,275.328735 83.916634,271.200897 75.113197,269.083557 
M27.465115,291.724915 
	C28.987869,291.724915 30.510624,291.724915 32.869331,291.724915 
	C30.110806,284.171753 27.896158,277.598572 25.283964,271.187317 
	C24.117453,268.324310 18.581665,267.995636 17.449621,270.739044 
	C14.700141,277.402191 12.467030,284.278412 10.025888,291.068756 
	C10.391564,291.471802 10.757240,291.874817 11.122915,292.277832 
	C12.903199,291.649323 15.124509,291.488251 16.380117,290.303619 
	C19.981293,286.905945 23.650345,287.092407 27.465115,291.724915 
M253.086777,274.170959 
	C248.557175,268.615265 242.398804,267.294373 236.894958,270.698029 
	C232.779999,273.242767 230.800125,278.680481 232.116501,283.822083 
	C233.418610,288.907990 237.632477,292.072845 243.142776,292.103424 
	C248.787781,292.134766 251.838409,290.002655 253.901566,283.377960 
	C250.785950,284.325439 248.357544,284.707275 246.281326,285.774414 
	C242.685242,287.622772 239.742142,286.814423 238.627060,283.297180 
	C237.954330,281.175262 238.544037,277.793823 239.945084,276.161865 
	C240.957108,274.983002 244.323624,275.327637 246.485046,275.762817 
	C249.032257,276.275665 251.638550,279.403290 253.086777,274.170959 
M467.178101,282.805634 
	C467.998352,281.979401 468.818573,281.153137 469.638824,280.326904 
	C468.365936,279.545685 467.075745,278.790955 465.825653,277.974854 
	C464.848572,277.337006 463.921204,276.623047 462.971771,275.942902 
	C463.976624,275.343140 464.931061,274.617706 466.003815,274.187134 
	C466.737457,273.892670 467.804565,274.272186 468.419830,273.877930 
	C469.261383,273.338654 470.190857,272.423187 470.363068,271.530182 
	C470.481079,270.918091 469.401642,269.453735 468.810303,269.427368 
	C465.031097,269.258667 461.098297,268.838165 457.539764,269.755859 
	C456.523804,270.017883 456.466003,274.428650 456.185089,276.961029 
	C455.985260,278.762238 456.148682,280.603668 456.148407,282.427155 
	C456.146851,292.591827 456.152893,292.677124 466.284668,291.941162 
	C467.725952,291.836487 469.073151,290.436188 470.463928,289.635529 
	C469.098267,288.804626 467.748962,287.945160 466.361908,287.151642 
	C465.198181,286.485901 463.990509,285.897064 462.802277,285.274170 
	C463.993774,284.468567 465.185242,283.662964 467.178101,282.805634 
M221.808929,291.752350 
	C224.362305,288.576538 222.989304,287.539886 219.540451,287.122742 
	C218.007767,286.937378 216.584412,285.847992 215.111435,285.168976 
	C216.492157,284.393066 217.934631,283.706909 219.234238,282.813049 
	C220.292557,282.085144 221.179855,281.108612 222.143005,280.242340 
	C221.201202,279.508667 220.299973,278.710876 219.296173,278.075073 
	C218.930328,277.843323 218.229492,278.159882 217.839890,277.942444 
	C216.927353,277.433136 216.110611,276.752197 215.255081,276.140778 
	C216.202469,275.463959 217.094345,274.678467 218.119965,274.154877 
	C218.656372,273.881042 219.585144,274.308319 220.061218,273.997253 
	C221.150604,273.285461 222.070663,272.314484 223.059464,271.448730 
	C221.999207,270.664856 221.007324,269.351532 219.864883,269.203979 
	C217.246216,268.865753 214.518280,268.845032 211.908890,269.216461 
	C210.825745,269.370667 209.116959,270.825928 209.082932,271.741211 
	C208.838745,278.310455 208.952316,284.892975 208.952316,291.901367 
	C213.515396,291.901367 217.310501,291.901367 221.808929,291.752350 
M137.267014,269.253845 
	C124.483284,268.429840 124.483322,268.429840 124.457108,280.990631 
	C124.455719,281.655426 124.452843,282.320190 124.450371,282.984985 
	C124.415474,292.368866 124.421150,292.470276 134.056671,291.930115 
	C135.639694,291.841370 137.147873,290.417236 138.690643,289.610260 
	C137.308060,288.798309 135.913696,288.005615 134.546371,287.168762 
	C133.321365,286.419006 132.126129,285.620575 130.917770,284.843597 
	C132.082352,284.189667 133.291687,283.602753 134.399399,282.863586 
	C135.591949,282.067780 136.689270,281.129272 137.828140,280.252991 
	C136.741562,279.510162 135.681183,278.724701 134.561066,278.036438 
	C133.430771,277.341919 132.241226,276.743805 131.077637,276.103455 
	C132.375946,275.438293 133.625885,274.347717 134.982269,274.193542 
	C138.131332,273.835602 139.945740,273.033051 137.267014,269.253845 
M44.421722,291.989899 
	C45.425632,290.410339 46.394623,288.807159 47.443729,287.258209 
	C48.404274,285.840027 49.299580,284.325684 50.506458,283.142120 
	C51.546383,282.122314 52.984768,281.508789 54.246990,280.715637 
	C53.028942,279.877106 51.790058,279.066864 50.599495,278.190948 
	C49.665558,277.503845 48.791416,276.735474 47.890705,276.003174 
	C48.899422,275.375031 49.842972,274.561920 50.937172,274.176422 
	C51.836555,273.859558 53.095882,274.373047 53.870167,273.938507 
	C54.955917,273.329163 55.739807,272.181915 56.652821,271.264771 
	C55.726791,270.534760 54.857864,269.282867 53.863865,269.174133 
	C51.062283,268.867584 48.208771,269.058014 45.376755,269.001190 
	C42.451962,268.942566 41.195366,270.237640 41.284706,273.246582 
	C41.433018,278.241760 41.161308,283.253174 41.428127,288.238434 
	C41.496197,289.510284 42.922951,290.709381 44.421722,291.989899 
M189.600830,269.043640 
	C187.941711,269.078247 186.231247,268.882812 184.643463,269.237122 
	C183.746826,269.437164 182.513763,270.475739 182.418030,271.257324 
	C182.322815,272.034729 183.408417,273.661682 184.067963,273.711914 
	C188.262863,274.031494 188.027634,276.952789 188.021454,279.833282 
	C188.016464,282.157501 187.957748,284.484039 188.042099,286.805237 
	C188.121552,288.991486 187.278259,291.846191 190.955948,291.959137 
	C195.093033,292.086243 193.992996,288.847656 194.150787,286.602814 
	C194.324966,284.124817 194.210190,281.625031 194.186890,279.135071 
	C194.162201,276.500763 194.274460,274.139740 197.874771,273.852814 
	C198.612152,273.794067 199.646576,272.132904 199.728836,271.142639 
	C199.779816,270.528992 198.355515,269.308868 197.485550,269.196564 
	C195.197189,268.901184 192.849854,269.062775 189.600830,269.043640 
M361.944183,281.531525 
	C361.932495,278.388458 362.186951,275.209381 361.768768,272.121368 
	C361.616730,270.998260 359.860870,270.092346 358.836761,269.087341 
	C357.838684,270.110474 356.097748,271.054901 355.979431,272.171265 
	C355.597870,275.772064 355.800812,279.436157 355.801910,283.075867 
	C355.804871,292.750793 355.809753,292.750610 365.524902,292.028778 
	C365.854736,292.004272 366.259583,292.108398 366.502441,291.953491 
	C367.366943,291.402008 368.176422,290.764313 369.006714,290.159241 
	C368.212402,289.324432 367.414124,287.772400 366.624481,287.776794 
	C362.853271,287.797882 361.613434,285.941711 361.944183,281.531525 
M452.998352,330.894989 
	C451.108368,330.143677 449.218384,329.392334 447.087830,328.545380 
	C447.738983,328.054016 448.124969,327.511078 448.492798,327.523102 
	C453.515930,327.687531 454.097687,324.573151 453.690643,320.650299 
	C453.256744,316.468719 450.475647,315.809814 446.958405,315.904785 
	C442.397858,316.027954 441.566162,318.895386 441.656494,322.608490 
	C441.688660,323.930817 441.356598,325.334381 441.696533,326.560608 
	C442.275757,328.649811 442.978546,332.146606 444.120392,332.354401 
	C446.983215,332.875397 450.120819,331.886444 452.998352,330.894989 
M201.115005,322.605347 
	C200.428268,325.286835 198.971802,328.098145 199.392517,330.592896 
	C199.590973,331.769623 203.326324,332.660828 205.573334,333.110870 
	C209.265244,333.850372 211.302017,332.326355 210.868179,328.234222 
	C210.693710,326.588409 210.859406,324.908752 210.825378,323.245453 
	C210.676514,315.969391 205.763184,313.492737 198.125397,318.027252 
	C201.128616,318.977692 203.364670,319.685333 206.872513,320.795471 
	C204.407639,321.519257 203.094666,321.904816 201.115005,322.605347 
M343.945709,332.677612 
	C343.495270,331.718384 343.287872,330.308075 342.538177,329.904083 
	C341.371887,329.275574 339.836945,329.331055 338.458252,329.096619 
	C339.255127,327.911407 340.097473,327.309937 340.916962,327.339569 
	C344.193176,327.458038 345.317169,325.847961 345.182495,322.775238 
	C345.055420,319.875549 345.082520,316.463959 341.452576,316.286530 
	C338.881714,316.160858 334.279602,317.350739 333.974274,318.713165 
	C333.082428,322.692566 333.034302,327.376831 334.446442,331.106781 
	C335.023560,332.631226 340.203400,332.413086 343.945709,332.677612 
M148.362061,283.373962 
	C148.358032,292.308746 149.103180,293.032959 158.041824,291.963623 
	C159.268097,291.816925 160.372421,290.650879 161.533203,289.956757 
	C160.481293,289.154968 159.466461,287.734161 158.370468,287.668549 
	C155.199219,287.478638 154.482407,285.766449 154.521713,283.066406 
	C154.572571,279.571381 154.778564,276.037872 154.329895,272.597565 
	C154.163452,271.321289 152.333801,270.261871 151.262650,269.103577 
	C150.311157,270.212219 148.683075,271.239532 148.538223,272.445068 
	C148.143646,275.729156 148.375854,279.088531 148.362061,283.373962 
M267.571960,319.232788 
	C269.229553,319.558197 270.887177,319.883636 272.544769,320.209045 
	C271.259125,321.582428 269.359772,321.633881 268.725159,322.555847 
	C267.437561,324.426575 266.203064,326.760590 266.176819,328.918610 
	C266.160065,330.295624 268.206940,332.680267 269.580627,332.880066 
	C272.162964,333.255615 277.186188,332.620117 277.255249,331.979980 
	C277.755737,327.340607 277.852020,322.448700 276.724945,317.977325 
	C276.410553,316.730225 271.577850,316.479462 268.773346,316.140533 
	C268.295532,316.082794 267.591766,317.894379 267.571960,319.232788 
M315.057404,315.909698 
	C307.651093,316.214508 305.949097,320.023193 309.314453,325.345764 
	C309.314453,328.453217 309.049683,331.526306 309.355591,331.584198 
	C312.269897,332.135773 316.074860,333.410339 318.099518,332.107758 
	C322.365540,329.363068 319.564240,325.555420 317.460724,322.539001 
	C320.745636,318.789185 320.508911,317.994415 315.057404,315.909698 
M117.431343,320.219849 
	C117.387894,322.378326 117.528687,324.564301 117.212418,326.682037 
	C117.081650,327.557648 115.971092,328.286926 115.306152,329.082764 
	C114.640297,328.263336 113.549385,327.515778 113.396217,326.609680 
	C113.067589,324.665710 113.469498,322.592834 113.100784,320.662842 
	C112.813721,319.160217 111.813873,317.793793 111.130806,316.366821 
	C110.515694,317.722626 109.566475,319.030579 109.363853,320.445465 
	C109.060692,322.562347 109.349152,324.756958 109.267075,326.914001 
	C109.100677,331.286865 111.065025,333.290100 115.521362,333.284241 
	C119.891792,333.278503 121.441666,331.086273 121.331734,327.059906 
	C121.263733,324.569672 121.496887,322.060974 121.272522,319.589844 
	C121.170479,318.465973 120.287575,317.412994 119.758881,316.327881 
	C118.989700,317.363922 118.220512,318.399994 117.431343,320.219849 
M74.315933,329.527679 
	C74.315941,327.033997 74.224304,324.536194 74.335815,322.047516 
	C74.542679,317.430389 72.341934,311.822144 79.626923,310.187469 
	C76.068214,307.173889 68.648331,307.160950 65.131378,310.184509 
	C72.040939,311.411316 70.433807,316.585663 70.534142,320.990356 
	C70.602264,323.980957 70.468773,326.983185 70.699966,329.958893 
	C70.773033,330.899414 71.733612,331.771027 72.288010,332.674164 
	C72.952202,331.875916 73.616394,331.077667 74.315933,329.527679 
M417.185303,324.535156 
	C417.309631,327.611664 416.289520,331.490509 420.197632,332.684998 
	C422.840027,333.492584 425.929016,332.839050 428.818237,332.839050 
	C427.031464,330.064087 426.971863,320.283691 428.677826,316.969482 
	C420.771271,314.008209 417.467346,315.932312 417.185303,324.535156 
M446.447479,283.375427 
	C446.430542,279.557892 446.607513,275.722900 446.266205,271.934601 
	C446.175964,270.933167 444.501434,269.370422 443.529907,269.351959 
	C442.573273,269.333771 440.786743,270.910187 440.742157,271.852203 
	C440.467865,277.648163 440.455414,283.468048 440.700348,289.265381 
	C440.739716,290.196808 442.500244,291.741394 443.479248,291.752411 
	C444.440094,291.763275 445.912384,290.343567 446.270172,289.258179 
	C446.765533,287.755676 446.428314,285.978729 446.447479,283.375427 
M377.801422,316.306366 
	C377.271851,316.605560 376.252014,316.979919 376.284668,317.192932 
	C377.030945,322.062012 377.525635,327.019165 378.882812,331.724670 
	C379.586395,334.164062 384.004883,333.707062 384.699188,331.104462 
	C385.761200,327.123352 386.354828,323.002319 386.883240,318.906647 
	C386.987244,318.100616 385.894501,317.140198 385.353699,316.250946 
	C384.602844,316.784729 383.438049,317.168121 383.179230,317.880646 
	C382.423004,319.962402 382.028259,322.175446 381.426453,324.600433 
	C380.360840,321.750397 379.369995,319.100342 377.801422,316.306366 
M162.589005,312.705292 
	C161.583664,314.380341 160.578323,316.055359 159.572983,317.730408 
	C161.067276,321.188965 161.528564,324.656982 161.890152,328.135376 
	C162.397064,333.011627 165.372360,334.399353 169.477707,331.622559 
	C164.465881,326.258942 164.463913,323.766113 169.771927,317.129944 
	C167.549744,315.548462 165.324097,313.964539 162.589005,312.705292 
M401.361176,314.895477 
	C400.978577,320.128754 400.509094,325.358795 400.315613,330.599060 
	C400.289368,331.309845 401.646118,332.071686 402.362488,332.809875 
	C402.926270,332.089264 403.777893,331.449066 404.005463,330.634521 
	C405.167419,326.475464 403.831390,316.933350 401.586517,312.696289 
	C401.487701,313.295990 401.410126,313.766785 401.361176,314.895477 
M358.321899,325.475800 
	C358.324860,326.804199 358.067963,328.203308 358.404602,329.440948 
	C358.734955,330.655670 359.668610,331.706360 360.337494,332.829041 
	C361.000488,331.665405 362.078003,330.559906 362.250885,329.327545 
	C362.829498,325.203369 363.084686,321.033752 363.574615,315.667419 
	C361.922913,316.597321 359.780609,317.078278 359.197571,318.302063 
	C358.328857,320.125671 358.560425,322.473511 358.321899,325.475800 
M94.445084,331.993286 
	C95.031609,326.876770 95.618134,321.760284 96.230644,316.417175 
	C93.326721,315.422852 91.407570,316.970734 91.068550,319.752869 
	C90.629532,323.355621 90.789787,327.062744 91.075462,330.694763 
	C91.129272,331.378906 92.978752,331.921753 94.445084,331.993286 
z"/>
<path fill="#284E5B" opacity="1.000000" stroke="none" 
	d="
M521.500000,413.000000 
	C520.999939,275.976685 520.999939,138.953354 520.999939,1.465010 
	C521.333374,2.333328 521.956970,3.666394 521.958191,5.000033 
	C522.007324,58.333324 522.000000,111.666664 522.000000,165.000000 
	C522.000000,247.666672 522.000000,330.333344 521.500000,413.000000 
z"/>
<path fill="#5BC0DF" opacity="1.000000" stroke="none" 
	d="
M297.671417,207.910522 
	C299.577545,215.266998 300.455933,222.661331 297.968109,230.050827 
	C294.743927,239.627579 285.929810,243.746857 277.375610,238.375565 
	C271.531250,234.705811 265.989197,229.454208 262.311523,223.644165 
	C251.995071,207.346176 242.714966,190.392166 233.282532,173.319397 
	C234.322754,172.296768 235.875717,171.468399 235.772369,171.034744 
	C234.622543,166.209793 233.216507,161.445877 231.879639,156.665497 
	C231.392731,156.570755 230.905838,156.476013 230.418930,156.381271 
	C228.913177,158.967300 227.407425,161.553329 225.901672,164.139359 
	C220.782776,173.486725 215.663895,182.834091 210.206879,192.680145 
	C208.756256,195.773987 207.643753,198.369141 206.302856,201.168701 
	C205.741364,202.550140 205.408295,203.727203 205.031372,205.312195 
	C204.942535,206.806076 204.897522,207.891998 204.743546,209.286423 
	C204.442566,213.549728 206.180603,215.768219 209.920090,217.531586 
	C216.339188,220.558487 222.266724,218.833557 228.367416,217.092361 
	C222.757263,223.911057 212.669983,227.278320 205.675293,224.858490 
	C200.393860,223.031418 197.660324,219.067612 196.799332,213.779449 
	C195.417801,205.294067 198.037216,197.552231 202.084457,190.343460 
	C210.723160,174.956528 219.643188,159.727554 229.084869,144.197159 
	C233.220871,141.726944 237.001923,139.820480 240.113617,137.137650 
	C241.987793,135.521774 242.820297,132.697739 244.120911,130.416626 
	C241.620865,130.016159 239.120804,129.615692 236.176514,129.191010 
	C227.608337,129.134949 219.473846,128.839371 211.364166,129.164062 
	C205.960831,129.380402 200.592911,130.481262 194.815979,131.151367 
	C192.937698,131.398026 191.452606,131.679550 189.632843,132.031464 
	C187.850647,132.723846 186.403076,133.345871 184.655167,134.144257 
	C177.204788,141.033997 179.783722,150.922531 190.271881,156.176971 
	C191.620193,157.679459 192.705414,159.004898 193.790649,160.330322 
	C188.588928,157.499619 182.812546,155.372467 178.305603,151.691162 
	C169.036148,144.119736 170.137619,132.604034 180.874054,127.384880 
	C186.944351,124.433998 194.066681,122.716743 200.826630,122.313705 
	C213.889771,121.534874 227.031845,122.080109 240.983337,122.289902 
	C249.551926,124.137154 258.143616,120.973488 265.169464,127.116539 
	C266.523254,128.300217 269.657837,127.447197 271.970917,127.533722 
	C271.307892,125.340523 270.644867,123.147324 269.981842,120.954124 
	C264.576538,111.825768 259.171234,102.697411 253.441467,93.034164 
	C252.131378,91.211670 251.145737,89.924072 250.060944,88.317162 
	C248.076981,86.507431 246.192200,85.017006 244.362137,83.410355 
	C244.416870,83.294144 244.500687,83.039291 244.489838,82.778107 
	C243.347168,81.637596 242.215347,80.758263 240.840515,79.614700 
	C238.247345,79.077415 235.422836,77.834908 233.634430,78.709953 
	C227.874069,81.528473 224.271744,86.283020 224.088074,93.503448 
	C224.033600,96.767563 223.986130,99.589127 223.774628,102.497818 
	C223.610596,102.584946 223.353897,102.853432 223.353912,102.853432 
	C222.878220,96.281639 221.373520,89.585579 222.148880,83.164856 
	C223.600357,71.145226 233.770645,66.125656 244.111633,72.212433 
	C248.961731,75.067223 253.737350,79.194450 256.698242,83.906548 
	C267.225250,100.659782 276.957306,117.912567 286.921967,135.654343 
	C284.523773,141.957870 285.611023,149.781906 289.730988,153.679230 
	C291.538757,151.121033 293.296967,148.633026 295.055145,146.145020 
	C299.733734,137.670700 304.412323,129.196381 309.572754,120.301773 
	C311.321533,116.632988 312.588470,113.384499 314.076172,109.819244 
	C314.646393,108.023140 314.995850,106.543800 315.587189,104.844688 
	C316.160858,103.127464 316.492615,101.629997 316.809509,99.764343 
	C315.527252,91.057053 300.619904,87.989891 292.612213,94.996368 
	C291.422424,94.928680 290.629608,94.869179 289.836823,94.809677 
	C295.705170,91.559319 301.235565,87.084396 307.522125,85.349228 
	C316.663147,82.826187 323.432220,88.763634 324.272614,98.263008 
	C324.960785,106.041817 322.542450,113.144997 318.821259,119.741554 
	C309.580566,136.122421 300.099396,152.367630 290.016205,168.858093 
	C281.203430,167.434128 279.768829,176.475601 273.745209,178.467102 
	C277.114227,180.659485 280.182373,182.840515 284.302155,180.231964 
	C285.006165,180.254593 285.409088,180.231003 285.812042,180.207428 
	C295.589691,180.207489 305.367340,180.207550 315.917023,180.321289 
	C319.196320,180.097549 321.703583,179.760117 324.603119,179.378143 
	C326.800568,178.990356 328.605713,178.647110 330.665924,178.175568 
	C331.599487,177.684509 332.278015,177.321716 333.297455,176.923569 
	C334.782440,175.943161 335.926514,174.998123 337.373566,173.860962 
	C342.499084,167.207275 339.357574,158.003952 330.853638,153.886627 
	C330.551788,153.376160 330.373535,153.021591 330.195312,152.667023 
	C336.727905,153.629852 342.048279,156.664398 345.729858,162.185272 
	C350.283875,169.014450 349.026520,176.090439 342.535309,181.166428 
	C335.754181,186.469131 327.781006,187.941925 319.492157,187.970657 
	C298.328583,188.044022 277.164368,187.949738 255.908295,187.731323 
	C258.413147,187.141342 261.010162,186.742584 264.958862,186.136261 
	C259.840515,183.672729 256.242554,181.719421 252.461258,180.232193 
	C250.989883,179.653473 249.105194,180.125702 247.408768,180.119202 
	C247.501099,181.995636 247.243759,183.989410 247.819092,185.703751 
	C248.155243,186.705399 249.821655,187.260605 250.889603,188.016647 
	C256.388489,197.591766 261.887360,207.166901 267.692871,217.228622 
	C268.782898,219.064270 269.566315,220.413330 270.475952,222.066422 
	C273.046600,224.558868 275.491089,226.747253 278.136505,229.179260 
	C279.223572,229.940735 280.109711,230.458588 281.338074,231.141876 
	C284.894409,230.581787 288.620728,230.646423 291.214996,228.964691 
	C296.456482,225.566895 297.371521,219.856644 296.913574,213.512909 
	C296.932983,211.673904 296.945709,210.259232 296.973022,208.727676 
	C296.987610,208.610809 296.996216,208.375427 297.175934,208.275070 
	C297.355652,208.174713 297.671417,207.910522 297.671417,207.910522 
M266.836029,140.593521 
	C266.304321,139.195908 265.862793,137.755402 265.222748,136.409302 
	C263.729126,133.267929 257.513641,132.589600 256.248993,135.687881 
	C252.826660,144.072510 249.928543,152.671112 246.788773,161.277344 
	C252.238831,162.422867 252.238831,162.422867 254.433044,159.230682 
	C256.490997,156.236786 264.890015,156.049576 266.470856,159.275406 
	C268.345245,163.100220 270.814209,162.274506 274.272552,161.266418 
	C271.796448,154.402374 269.440063,147.870270 266.836029,140.593521 
z"/>
<path fill="#58B5D2" opacity="1.000000" stroke="none" 
	d="
M314.307861,280.017914 
	C314.300598,282.830353 314.566559,285.207428 314.193481,287.479584 
	C313.939331,289.027069 312.894501,291.568848 312.020508,291.647980 
	C310.382294,291.796265 308.135956,290.919189 306.996155,289.682129 
	C304.710602,287.201538 302.999664,284.191528 299.853241,281.718811 
	C299.723755,283.774170 299.934357,285.931976 299.356079,287.852173 
	C298.902618,289.357788 297.473083,290.569458 296.477234,291.911743 
	C295.510742,290.654846 293.799683,289.448578 293.710175,288.132080 
	C293.371918,283.156647 293.404877,278.137695 293.654144,273.152771 
	C293.721252,271.810059 294.899536,269.577728 295.822968,269.437805 
	C297.322235,269.210632 299.535156,269.918274 300.550751,271.041473 
	C302.830536,273.562866 304.559875,276.582001 306.513336,279.398499 
	C306.944794,279.313477 307.376282,279.228485 307.807770,279.143463 
	C307.999817,276.984406 307.864624,274.722717 308.498260,272.702118 
	C308.924805,271.341797 310.437744,270.322144 311.464661,269.150085 
	C312.396851,270.280518 313.884369,271.299255 314.139069,272.565918 
	C314.590485,274.810486 314.292969,277.205688 314.307861,280.017914 
z"/>
<path fill="#55B3CE" opacity="1.000000" stroke="none" 
	d="
M269.697632,287.653809 
	C268.601562,289.358368 267.514038,290.656677 266.426483,291.954987 
	C265.511353,290.640198 263.894592,289.370361 263.806976,288.002594 
	C263.488708,283.031403 263.488434,278.014923 263.809814,273.044067 
	C263.897858,271.682190 265.528381,270.420105 266.451111,269.112244 
	C267.531647,270.442871 269.306580,271.661865 269.542236,273.128235 
	C269.978241,275.841156 270.114594,277.914703 273.724335,277.896484 
	C277.261902,277.878601 277.563965,275.948608 277.936859,273.155273 
	C278.130096,271.708008 279.897064,270.470795 280.953064,269.138672 
	C281.915009,270.565887 283.587708,271.936493 283.706665,273.430817 
	C284.075317,278.060883 283.846497,282.738037 283.862915,287.396851 
	C283.870697,289.596649 284.148682,291.908386 280.837463,291.946136 
	C277.419647,291.985107 277.810883,289.490326 277.836182,287.399323 
	C277.868683,284.717255 277.297089,282.959290 274.061615,282.831299 
	C270.735077,282.699677 269.489746,284.129242 269.697632,287.653809 
z"/>
<path fill="#55B3CE" opacity="1.000000" stroke="none" 
	d="
M96.941193,270.897705 
	C103.889282,267.694641 109.371208,268.527954 112.989372,273.069000 
	C117.013580,278.119659 116.303589,285.439728 111.384941,289.610809 
	C106.752129,293.539490 98.725510,292.904083 94.725708,288.292023 
	C90.350266,283.246796 91.128433,276.344391 96.941193,270.897705 
M98.399200,282.808716 
	C99.563820,285.853699 101.915031,287.650940 104.924034,286.527374 
	C106.707443,285.861420 108.557693,283.659180 109.112228,281.775177 
	C110.261543,277.870453 107.667297,274.418274 104.148758,274.195923 
	C100.355568,273.956207 98.302002,276.668823 98.399200,282.808716 
z"/>
<path fill="#57B4D0" opacity="1.000000" stroke="none" 
	d="
M377.513306,284.541290 
	C375.981964,274.824249 380.459930,268.904327 388.915894,268.955811 
	C394.516327,268.989899 398.905609,272.416534 400.156097,277.730713 
	C401.378845,282.927124 398.928040,288.481110 394.336548,290.918579 
	C389.744751,293.356201 382.925690,292.187042 379.684753,288.301910 
	C378.845001,287.295288 378.311646,286.033020 377.513306,284.541290 
M389.352844,286.859497 
	C393.791687,284.943237 395.424866,281.865021 393.856934,277.993347 
	C392.551086,274.768860 390.116211,273.179810 386.714050,274.595398 
	C382.964905,276.155365 382.055176,279.548981 383.494507,282.876617 
	C384.246765,284.615814 386.815613,285.569214 389.352844,286.859497 
z"/>
<path fill="#57B4D0" opacity="1.000000" stroke="none" 
	d="
M340.831482,270.187622 
	C346.033783,273.289764 347.899017,277.701263 346.712128,283.120422 
	C345.669586,287.880737 342.626312,291.077759 337.636353,291.963165 
	C332.303040,292.909454 327.745636,290.945404 325.100525,286.695465 
	C322.547394,282.593323 322.919861,276.890930 325.987335,273.117920 
	C329.337646,268.996979 334.346222,267.930969 340.831482,270.187622 
M340.626282,282.832855 
	C340.728210,281.854462 341.008911,280.855682 340.900238,279.901276 
	C340.491852,276.314026 338.579742,273.957855 334.801300,274.216095 
	C330.988586,274.476685 329.115417,277.247894 329.673309,280.699310 
	C330.009033,282.776550 331.626984,285.314758 333.416107,286.334381 
	C336.194214,287.917694 338.785370,286.402649 340.626282,282.832855 
z"/>
<path fill="#58B3D0" opacity="1.000000" stroke="none" 
	d="
M75.543854,269.110596 
	C83.916634,271.200897 85.393425,275.328735 80.800774,282.056824 
	C80.152168,283.006989 80.115486,284.729279 80.448326,285.910248 
	C80.924393,287.599487 82.002151,289.119141 83.637268,292.290619 
	C80.374374,291.601959 78.076500,291.674377 76.525299,290.633789 
	C74.954895,289.580292 74.123154,287.425690 72.846840,285.578217 
	C70.498856,287.792816 72.386841,293.364044 67.640068,291.587097 
	C66.212135,291.052551 65.905853,287.004639 65.471748,284.499298 
	C65.136864,282.566589 65.385468,280.529083 65.409111,278.538574 
	C65.531532,268.232117 63.991974,269.102722 75.543854,269.110596 
M74.279930,273.971100 
	C73.277458,274.959808 72.072708,275.832886 71.399719,277.009949 
	C71.205963,277.348877 72.579079,279.263489 73.173409,279.234100 
	C74.483727,279.169281 75.755608,278.326782 77.043167,277.801605 
	C76.365463,276.548157 75.687759,275.294678 74.279930,273.971100 
z"/>
<path fill="#55B3CE" opacity="1.000000" stroke="none" 
	d="
M27.153795,291.532959 
	C23.650345,287.092407 19.981293,286.905945 16.380117,290.303619 
	C15.124509,291.488251 12.903199,291.649323 11.122915,292.277832 
	C10.757240,291.874817 10.391564,291.471802 10.025888,291.068756 
	C12.467030,284.278412 14.700141,277.402191 17.449621,270.739044 
	C18.581665,267.995636 24.117453,268.324310 25.283964,271.187317 
	C27.896158,277.598572 30.110806,284.171753 32.869331,291.724915 
	C30.510624,291.724915 28.987869,291.724915 27.153795,291.532959 
z"/>
<path fill="#58B3D0" opacity="1.000000" stroke="none" 
	d="
M253.233276,274.475769 
	C251.638550,279.403290 249.032257,276.275665 246.485046,275.762817 
	C244.323624,275.327637 240.957108,274.983002 239.945084,276.161865 
	C238.544037,277.793823 237.954330,281.175262 238.627060,283.297180 
	C239.742142,286.814423 242.685242,287.622772 246.281326,285.774414 
	C248.357544,284.707275 250.785950,284.325439 253.901566,283.377960 
	C251.838409,290.002655 248.787781,292.134766 243.142776,292.103424 
	C237.632477,292.072845 233.418610,288.907990 232.116501,283.822083 
	C230.800125,278.680481 232.779999,273.242767 236.894958,270.698029 
	C242.398804,267.294373 248.557175,268.615265 253.233276,274.475769 
z"/>
<path fill="#54AEC8" opacity="1.000000" stroke="none" 
	d="
M466.777405,282.831482 
	C465.185242,283.662964 463.993774,284.468567 462.802277,285.274170 
	C463.990509,285.897064 465.198181,286.485901 466.361908,287.151642 
	C467.748962,287.945160 469.098267,288.804626 470.463928,289.635529 
	C469.073151,290.436188 467.725952,291.836487 466.284668,291.941162 
	C456.152893,292.677124 456.146851,292.591827 456.148407,282.427155 
	C456.148682,280.603668 455.985260,278.762238 456.185089,276.961029 
	C456.466003,274.428650 456.523804,270.017883 457.539764,269.755859 
	C461.098297,268.838165 465.031097,269.258667 468.810303,269.427368 
	C469.401642,269.453735 470.481079,270.918091 470.363068,271.530182 
	C470.190857,272.423187 469.261383,273.338654 468.419830,273.877930 
	C467.804565,274.272186 466.737457,273.892670 466.003815,274.187134 
	C464.931061,274.617706 463.976624,275.343140 462.971771,275.942932 
	C463.921204,276.623047 464.848572,277.337006 465.825653,277.974854 
	C467.075745,278.790955 468.365936,279.545685 469.638794,280.326904 
	C468.818573,281.153137 467.998352,281.979401 466.777405,282.831482 
z"/>
<path fill="#54B0CC" opacity="1.000000" stroke="none" 
	d="
M221.457275,291.826843 
	C217.310501,291.901367 213.515396,291.901367 208.952316,291.901367 
	C208.952316,284.892975 208.838745,278.310455 209.082932,271.741211 
	C209.116959,270.825928 210.825745,269.370667 211.908890,269.216461 
	C214.518280,268.845032 217.246216,268.865753 219.864883,269.203979 
	C221.007324,269.351532 221.999207,270.664856 223.059479,271.448730 
	C222.070663,272.314484 221.150604,273.285461 220.061218,273.997253 
	C219.585144,274.308319 218.656372,273.881042 218.119965,274.154877 
	C217.094345,274.678467 216.202469,275.463959 215.255081,276.140778 
	C216.110611,276.752197 216.927353,277.433136 217.839890,277.942444 
	C218.229492,278.159882 218.930328,277.843323 219.296173,278.075073 
	C220.299973,278.710876 221.201202,279.508667 222.143005,280.242340 
	C221.179855,281.108612 220.292557,282.085144 219.234238,282.813049 
	C217.934631,283.706909 216.492157,284.393066 215.111435,285.168976 
	C216.584412,285.847992 218.007767,286.937378 219.540451,287.122742 
	C222.989304,287.539886 224.362305,288.576538 221.457275,291.826843 
z"/>
<path fill="#54B0CC" opacity="1.000000" stroke="none" 
	d="
M137.587921,269.411499 
	C139.945740,273.033051 138.131332,273.835602 134.982269,274.193542 
	C133.625885,274.347717 132.375946,275.438293 131.077637,276.103455 
	C132.241226,276.743805 133.430771,277.341919 134.561066,278.036438 
	C135.681183,278.724701 136.741562,279.510162 137.828140,280.252991 
	C136.689270,281.129272 135.591949,282.067780 134.399399,282.863586 
	C133.291687,283.602753 132.082352,284.189667 130.917770,284.843597 
	C132.126129,285.620575 133.321365,286.419006 134.546371,287.168762 
	C135.913696,288.005615 137.308060,288.798309 138.690643,289.610260 
	C137.147873,290.417236 135.639694,291.841370 134.056671,291.930115 
	C124.421150,292.470276 124.415474,292.368866 124.450371,282.984985 
	C124.452843,282.320190 124.455719,281.655426 124.457108,280.990631 
	C124.483322,268.429840 124.483284,268.429840 137.587921,269.411499 
z"/>
<path fill="#57B4D0" opacity="1.000000" stroke="none" 
	d="
M414.034546,290.878052 
	C414.034546,290.878052 413.845795,290.684357 413.553406,290.364655 
	C412.063202,288.783478 410.865356,287.522003 409.667480,286.260529 
	C409.401276,285.407349 409.135071,284.554169 408.819427,282.967957 
	C408.739319,280.800781 408.708679,279.366699 408.677979,277.932587 
	C409.178406,276.686798 409.678802,275.440979 410.543762,273.722382 
	C411.426727,272.587341 411.945160,271.925079 412.463593,271.262848 
	C412.463593,271.262848 412.751770,271.154266 413.177704,270.997925 
	C414.739502,270.242889 415.875366,269.644196 417.011230,269.045502 
	C419.040527,269.049561 421.069855,269.053650 423.772949,269.283997 
	C425.605713,270.055389 426.764709,270.600525 427.923706,271.145691 
	C428.569489,271.921783 429.215240,272.697906 429.981689,274.062897 
	C427.664551,278.515198 425.236176,275.894867 422.635742,274.786163 
	C419.424683,273.417114 416.576996,274.320435 415.166504,277.571136 
	C413.715576,280.915039 414.044617,284.404877 417.546356,286.255219 
	C420.191650,287.653076 423.200623,287.726746 425.186615,283.943085 
	C424.074066,283.522888 423.282715,283.358856 422.645264,282.953064 
	C421.566986,282.266632 420.586029,281.427368 419.564117,280.652374 
	C420.673340,280.139679 421.755157,279.274109 422.897339,279.185364 
	C425.535400,278.980255 428.202759,279.151825 430.858215,279.170654 
	C431.010193,279.553711 431.162201,279.936768 431.316711,281.011322 
	C431.185394,283.131256 431.051605,284.559662 430.917786,285.988098 
	C430.344208,286.782867 429.770660,287.577667 428.757080,288.723022 
	C426.869812,290.015900 425.422485,290.958191 423.975159,291.900513 
	C421.943665,291.933746 419.912140,291.967010 417.201355,291.780457 
	C415.692902,291.333130 414.863739,291.105591 414.034546,290.878052 
z"/>
<path fill="#58B3D0" opacity="1.000000" stroke="none" 
	d="
M494.483093,290.623474 
	C490.143707,292.775635 485.792236,293.098602 481.913879,289.862976 
	C480.279938,288.499847 478.045990,286.310333 482.854218,284.939453 
	C484.394653,285.478210 485.198303,286.181793 486.098145,286.340759 
	C487.467163,286.582611 488.902832,286.447021 490.310211,286.471771 
	C489.572968,285.280334 489.105255,283.642120 488.037781,282.998138 
	C486.268127,281.930542 484.112549,281.502655 482.119568,280.805237 
	C481.939178,280.558258 481.719940,280.352722 481.212555,279.784210 
	C480.595886,278.934021 480.228546,278.488281 479.861206,278.042542 
	C479.806396,272.213623 481.488098,269.748871 486.024109,269.010101 
	C491.443359,268.127380 494.689209,269.929291 496.755798,275.949738 
	C493.044037,275.412659 489.912323,274.959503 485.639526,274.341248 
	C489.088593,279.934753 499.345520,278.700836 496.256531,288.152832 
	C495.439789,289.340393 494.961426,289.981934 494.483093,290.623474 
z"/>
<path fill="#54AEC8" opacity="1.000000" stroke="none" 
	d="
M44.073589,291.965881 
	C42.922951,290.709381 41.496197,289.510284 41.428127,288.238434 
	C41.161308,283.253174 41.433018,278.241760 41.284706,273.246582 
	C41.195366,270.237640 42.451962,268.942566 45.376755,269.001190 
	C48.208771,269.058014 51.062283,268.867584 53.863865,269.174133 
	C54.857864,269.282867 55.726791,270.534760 56.652817,271.264771 
	C55.739807,272.181915 54.955917,273.329163 53.870167,273.938507 
	C53.095882,274.373047 51.836555,273.859558 50.937172,274.176422 
	C49.842972,274.561920 48.899422,275.375031 47.890705,276.003174 
	C48.791416,276.735474 49.665558,277.503845 50.599495,278.190948 
	C51.790058,279.066864 53.028942,279.877106 54.246986,280.715637 
	C52.984768,281.508789 51.546383,282.122314 50.506458,283.142120 
	C49.299580,284.325684 48.404274,285.840027 47.443729,287.258209 
	C46.394623,288.807159 45.425632,290.410339 44.073589,291.965881 
z"/>
<path fill="#56B0CB" opacity="1.000000" stroke="none" 
	d="
M190.063416,269.042999 
	C192.849854,269.062775 195.197189,268.901184 197.485550,269.196564 
	C198.355515,269.308868 199.779816,270.528992 199.728836,271.142639 
	C199.646576,272.132904 198.612152,273.794067 197.874771,273.852814 
	C194.274460,274.139740 194.162201,276.500763 194.186890,279.135071 
	C194.210190,281.625031 194.324966,284.124817 194.150787,286.602814 
	C193.992996,288.847656 195.093033,292.086243 190.955948,291.959137 
	C187.278259,291.846191 188.121552,288.991486 188.042099,286.805237 
	C187.957748,284.484039 188.016464,282.157501 188.021454,279.833282 
	C188.027634,276.952789 188.262863,274.031494 184.067963,273.711914 
	C183.408417,273.661682 182.322815,272.034729 182.418030,271.257324 
	C182.513763,270.475739 183.746826,269.437164 184.643463,269.237122 
	C186.231247,268.882812 187.941711,269.078247 190.063416,269.042999 
z"/>
<path fill="#298DA9" opacity="1.000000" stroke="none" 
	d="
M195.209137,131.186249 
	C200.592911,130.481262 205.960831,129.380402 211.364166,129.164062 
	C219.473846,128.839371 227.608337,129.134949 236.204651,129.472672 
	C236.302124,130.599838 235.927231,131.421097 235.552338,132.242371 
	C233.779205,131.603714 232.021744,130.470505 230.230194,130.413803 
	C223.255737,130.193054 216.266159,130.459381 209.290924,130.251801 
	C205.235245,130.131119 203.525024,131.658386 203.641388,135.754425 
	C203.834869,142.565002 203.785416,149.382980 203.804871,156.197922 
	C203.824417,163.048340 203.467255,163.290283 196.619278,161.038513 
	C197.488083,160.558868 198.370865,160.355316 199.596771,160.035660 
	C200.636703,158.366455 202.086792,156.708679 201.888290,155.279984 
	C201.305313,151.084518 200.203049,146.941711 199.046906,142.850983 
	C197.934662,138.915543 196.501358,135.070831 195.209137,131.186249 
z"/>
<path fill="#56B0CB" opacity="1.000000" stroke="none" 
	d="
M361.943726,282.019409 
	C361.613434,285.941711 362.853271,287.797882 366.624481,287.776794 
	C367.414124,287.772400 368.212402,289.324432 369.006714,290.159241 
	C368.176422,290.764313 367.366943,291.402008 366.502441,291.953491 
	C366.259583,292.108398 365.854736,292.004272 365.524902,292.028778 
	C355.809753,292.750610 355.804871,292.750793 355.801910,283.075867 
	C355.800812,279.436157 355.597870,275.772064 355.979431,272.171265 
	C356.097748,271.054901 357.838684,270.110474 358.836761,269.087341 
	C359.860870,270.092346 361.616730,270.998260 361.768768,272.121368 
	C362.186951,275.209381 361.932495,278.388458 361.943726,282.019409 
z"/>
<path fill="#54A8C0" opacity="1.000000" stroke="none" 
	d="
M453.073303,331.199066 
	C450.120819,331.886444 446.983215,332.875397 444.120392,332.354401 
	C442.978546,332.146606 442.275757,328.649811 441.696533,326.560608 
	C441.356598,325.334381 441.688660,323.930817 441.656494,322.608490 
	C441.566162,318.895386 442.397858,316.027954 446.958405,315.904785 
	C450.475647,315.809814 453.256744,316.468719 453.690643,320.650299 
	C454.097687,324.573151 453.515930,327.687531 448.492798,327.523102 
	C448.124969,327.511078 447.738983,328.054016 447.087830,328.545380 
	C449.218384,329.392334 451.108368,330.143677 453.073303,331.199066 
z"/>
<path fill="#53A8C3" opacity="1.000000" stroke="none" 
	d="
M201.448349,322.447845 
	C203.094666,321.904816 204.407639,321.519257 206.872513,320.795471 
	C203.364670,319.685333 201.128616,318.977692 198.125397,318.027252 
	C205.763184,313.492737 210.676514,315.969391 210.825378,323.245453 
	C210.859406,324.908752 210.693710,326.588409 210.868179,328.234222 
	C211.302017,332.326355 209.265244,333.850372 205.573334,333.110870 
	C203.326324,332.660828 199.590973,331.769623 199.392517,330.592896 
	C198.971802,328.098145 200.428268,325.286835 201.448349,322.447845 
z"/>
<path fill="#53AAC0" opacity="1.000000" stroke="none" 
	d="
M343.617493,332.832672 
	C340.203400,332.413086 335.023560,332.631226 334.446442,331.106781 
	C333.034302,327.376831 333.082428,322.692566 333.974274,318.713165 
	C334.279602,317.350739 338.881714,316.160858 341.452576,316.286530 
	C345.082520,316.463959 345.055420,319.875549 345.182495,322.775238 
	C345.317169,325.847961 344.193176,327.458038 340.916962,327.339569 
	C340.097473,327.309937 339.255127,327.911407 338.458252,329.096619 
	C339.836945,329.331055 341.371887,329.275574 342.538177,329.904083 
	C343.287872,330.308075 343.495270,331.718384 343.617493,332.832672 
z"/>
<path fill="#54AEC8" opacity="1.000000" stroke="none" 
	d="
M148.360870,282.896027 
	C148.375854,279.088531 148.143646,275.729156 148.538223,272.445068 
	C148.683075,271.239532 150.311157,270.212219 151.262634,269.103577 
	C152.333801,270.261871 154.163452,271.321289 154.329895,272.597565 
	C154.778564,276.037872 154.572571,279.571381 154.521713,283.066406 
	C154.482407,285.766449 155.199219,287.478638 158.370468,287.668549 
	C159.466461,287.734161 160.481293,289.154968 161.533203,289.956757 
	C160.372421,290.650879 159.268097,291.816925 158.041824,291.963623 
	C149.103180,293.032959 148.358032,292.308746 148.360870,282.896027 
z"/>
<path fill="#53AAC0" opacity="1.000000" stroke="none" 
	d="
M267.282166,319.037567 
	C267.591766,317.894379 268.295532,316.082794 268.773346,316.140533 
	C271.577850,316.479462 276.410553,316.730225 276.724945,317.977325 
	C277.852020,322.448700 277.755737,327.340607 277.255249,331.979980 
	C277.186188,332.620117 272.162964,333.255615 269.580627,332.880066 
	C268.206940,332.680267 266.160065,330.295624 266.176819,328.918610 
	C266.203064,326.760590 267.437561,324.426575 268.725159,322.555847 
	C269.359772,321.633881 271.259125,321.582428 272.544769,320.209045 
	C270.887177,319.883636 269.229553,319.558197 267.282166,319.037567 
z"/>
<path fill="#27A2C7" opacity="1.000000" stroke="none" 
	d="
M277.935577,228.935638 
	C275.491089,226.747253 273.046600,224.558868 270.799500,222.037048 
	C275.357635,216.903030 279.718384,212.102432 284.079132,207.301849 
	C284.766815,206.871017 285.454529,206.440201 286.737183,205.860870 
	C287.840271,205.377136 288.348419,205.041901 288.856567,204.706665 
	C288.856567,204.706650 288.824890,204.773010 289.079010,204.697800 
	C289.902344,204.130981 290.471558,203.639374 291.040741,203.147766 
	C291.716980,202.749100 292.393250,202.350449 293.726624,201.911133 
	C294.889282,201.927979 295.394867,201.985504 295.900421,202.043030 
	C295.900421,202.043030 296.095642,202.335358 296.180908,202.812698 
	C296.496338,203.861816 296.726532,204.433609 296.956726,205.005402 
	C297.070404,205.371048 297.184113,205.736679 297.173157,206.529221 
	C297.048492,206.956116 296.761444,207.236923 296.581970,207.195709 
	C296.402527,207.154510 296.037262,207.097183 295.760986,207.011490 
	C294.732147,207.127716 293.698395,207.082550 293.270355,207.569626 
	C288.799896,212.656723 284.293488,217.724487 280.108734,223.042847 
	C278.877167,224.608017 278.632507,226.949783 277.935577,228.935638 
z"/>
<path fill="#50A4BD" opacity="1.000000" stroke="none" 
	d="
M315.418213,315.934631 
	C320.508911,317.994415 320.745636,318.789185 317.460724,322.539001 
	C319.564240,325.555420 322.365540,329.363068 318.099518,332.107758 
	C316.074860,333.410339 312.269897,332.135773 309.355591,331.584198 
	C309.049683,331.526306 309.314453,328.453217 309.314453,325.345764 
	C305.949097,320.023193 307.651093,316.214508 315.418213,315.934631 
M315.149536,328.343781 
	C314.426422,327.809998 313.703308,327.276245 312.980194,326.742493 
	C312.695282,327.191467 312.410370,327.640442 312.125458,328.089386 
	C312.919922,328.383545 313.714386,328.677673 315.149536,328.343781 
z"/>
<path fill="#30B3DB" opacity="1.000000" stroke="none" 
	d="
M289.868256,94.826706 
	C290.629608,94.869179 291.422424,94.928680 292.954285,95.157234 
	C301.403687,96.928368 309.114014,98.530457 316.824341,100.132538 
	C316.492615,101.629997 316.160858,103.127464 315.110718,104.832901 
	C304.892761,103.735687 295.393250,102.430504 285.847137,100.715942 
	C285.757355,99.758980 285.714172,99.211403 285.670959,98.663818 
	C286.196655,98.110779 286.722382,97.557747 287.759644,96.924973 
	C288.824127,96.156479 289.377045,95.467720 289.929962,94.778961 
	C289.929962,94.778961 289.899689,94.843727 289.868256,94.826706 
z"/>
<path fill="#54A8C0" opacity="1.000000" stroke="none" 
	d="
M117.441338,319.827942 
	C118.220512,318.399994 118.989700,317.363922 119.758881,316.327881 
	C120.287575,317.412994 121.170479,318.465973 121.272522,319.589844 
	C121.496887,322.060974 121.263733,324.569672 121.331734,327.059906 
	C121.441666,331.086273 119.891792,333.278503 115.521362,333.284241 
	C111.065025,333.290100 109.100677,331.286865 109.267075,326.914001 
	C109.349152,324.756958 109.060692,322.562347 109.363853,320.445465 
	C109.566475,319.030579 110.515694,317.722626 111.130806,316.366821 
	C111.813873,317.793793 112.813721,319.160217 113.100784,320.662842 
	C113.469498,322.592834 113.067589,324.665710 113.396217,326.609680 
	C113.549385,327.515778 114.640297,328.263336 115.306152,329.082764 
	C115.971092,328.286926 117.081650,327.557648 117.212418,326.682037 
	C117.528687,324.564301 117.387894,322.378326 117.441338,319.827942 
z"/>
<path fill="#3FB9DF" opacity="1.000000" stroke="none" 
	d="
M228.687042,217.098450 
	C222.266724,218.833557 216.339188,220.558487 209.920090,217.531586 
	C206.180603,215.768219 204.442566,213.549728 205.162048,209.342300 
	C214.522232,210.734085 223.354996,212.378464 232.187744,214.022858 
	C231.127396,215.050095 230.067047,216.077301 228.687042,217.098450 
z"/>
<path fill="#259FC2" opacity="1.000000" stroke="none" 
	d="
M244.307404,83.526573 
	C246.192200,85.017006 248.076981,86.507431 249.866058,88.630920 
	C245.490814,93.720490 241.211304,98.177002 236.931793,102.633522 
	C233.325485,104.854454 229.719177,107.075386 225.544250,109.646515 
	C224.606552,107.142143 223.940536,105.363388 223.314209,103.219040 
	C223.353897,102.853432 223.610596,102.584946 224.025970,102.705284 
	C224.623840,102.939079 224.806335,103.052544 225.160339,103.395660 
	C229.305481,105.509537 230.845474,102.314560 232.719788,100.000626 
	C234.874374,97.340652 236.974304,94.627304 238.941498,91.827209 
	C240.834076,89.133362 242.526855,86.299133 244.307404,83.526573 
z"/>
<path fill="#30B3DB" opacity="1.000000" stroke="none" 
	d="
M199.253647,160.151764 
	C198.370865,160.355316 197.488083,160.558868 196.294144,160.897278 
	C195.455185,160.976074 194.927399,160.919983 194.095123,160.597107 
	C192.705414,159.004898 191.620193,157.679459 190.273682,155.744507 
	C189.600922,152.588547 189.365005,149.998062 188.739700,147.505264 
	C187.600143,142.962234 186.229660,138.477142 184.955521,133.967880 
	C186.403076,133.345871 187.850647,132.723846 189.730560,132.397095 
	C193.193176,141.845490 196.223419,150.998627 199.253647,160.151764 
z"/>
<path fill="#56B0CB" opacity="1.000000" stroke="none" 
	d="
M74.298264,329.903564 
	C73.616394,331.077667 72.952202,331.875916 72.288010,332.674164 
	C71.733612,331.771027 70.773033,330.899414 70.699966,329.958893 
	C70.468773,326.983185 70.602264,323.980957 70.534142,320.990356 
	C70.433807,316.585663 72.040939,311.411316 65.131378,310.184509 
	C68.648331,307.160950 76.068214,307.173889 79.626923,310.187469 
	C72.341934,311.822144 74.542679,317.430389 74.335815,322.047516 
	C74.224304,324.536194 74.315941,327.033997 74.298264,329.903564 
z"/>
<path fill="#50A4BD" opacity="1.000000" stroke="none" 
	d="
M417.187927,324.097229 
	C417.467346,315.932312 420.771271,314.008209 428.677826,316.969482 
	C426.971863,320.283691 427.031464,330.064087 428.818237,332.839050 
	C425.929016,332.839050 422.840027,333.492584 420.197632,332.684998 
	C416.289520,331.490509 417.309631,327.611664 417.187927,324.097229 
z"/>
<path fill="#27A2C7" opacity="1.000000" stroke="none" 
	d="
M205.075226,204.904266 
	C205.408295,203.727203 205.741364,202.550140 206.620239,200.986206 
	C208.882202,200.373520 210.652573,199.761246 212.304611,199.992920 
	C217.708588,200.750748 223.069489,201.815857 228.446945,202.762787 
	C229.476013,203.326279 230.505066,203.889771 231.978516,204.844620 
	C232.958099,205.473709 233.493286,205.711441 234.028473,205.949158 
	C237.274826,207.118820 239.198502,208.650253 235.140717,211.522797 
	C233.252518,210.335159 231.929352,208.660278 230.375473,208.408325 
	C221.973587,207.045898 213.514557,206.035812 205.075226,204.904266 
z"/>
<path fill="#58B5D2" opacity="1.000000" stroke="none" 
	d="
M446.447510,283.847351 
	C446.428314,285.978729 446.765533,287.755676 446.270172,289.258179 
	C445.912384,290.343567 444.440094,291.763275 443.479248,291.752411 
	C442.500244,291.741394 440.739716,290.196808 440.700348,289.265381 
	C440.455414,283.468048 440.467865,277.648163 440.742157,271.852203 
	C440.786743,270.910187 442.573273,269.333771 443.529907,269.351959 
	C444.501434,269.370422 446.175964,270.933167 446.266205,271.934601 
	C446.607513,275.722900 446.430542,279.557892 446.447510,283.847351 
z"/>
<path fill="#53AAC0" opacity="1.000000" stroke="none" 
	d="
M378.090271,316.378357 
	C379.369995,319.100342 380.360840,321.750397 381.426453,324.600433 
	C382.028259,322.175446 382.423004,319.962402 383.179230,317.880646 
	C383.438049,317.168121 384.602844,316.784729 385.353699,316.250946 
	C385.894501,317.140198 386.987244,318.100616 386.883240,318.906647 
	C386.354828,323.002319 385.761200,327.123352 384.699188,331.104462 
	C384.004883,333.707062 379.586395,334.164062 378.882812,331.724670 
	C377.525635,327.019165 377.030945,322.062012 376.284668,317.192932 
	C376.252014,316.979919 377.271851,316.605560 378.090271,316.378357 
z"/>
<path fill="#54A8C0" opacity="1.000000" stroke="none" 
	d="
M162.843719,312.542938 
	C165.324097,313.964539 167.549744,315.548462 169.771927,317.129944 
	C164.463913,323.766113 164.465881,326.258942 169.477707,331.622559 
	C165.372360,334.399353 162.397064,333.011627 161.890152,328.135376 
	C161.528564,324.656982 161.067276,321.188965 159.572983,317.730408 
	C160.578323,316.055359 161.583664,314.380341 162.843719,312.542938 
z"/>
<path fill="#238AA9" opacity="1.000000" stroke="none" 
	d="
M285.359192,98.791183 
	C285.714172,99.211403 285.757355,99.758980 285.993530,101.014870 
	C287.708252,102.943825 289.131287,104.320152 290.768829,105.358131 
	C297.846222,109.844292 306.351654,107.592033 313.855377,110.136009 
	C312.588470,113.384499 311.321533,116.632988 309.745911,119.981895 
	C308.227722,118.658119 307.279816,116.801147 305.763428,115.884674 
	C299.232208,111.937325 292.531921,108.269920 285.898071,104.492012 
	C283.279114,103.000534 281.885345,101.301994 285.359192,98.791183 
z"/>
<path fill="#35B6DC" opacity="1.000000" stroke="none" 
	d="
M337.070587,174.053070 
	C335.926514,174.998123 334.782440,175.943161 333.209290,176.574829 
	C329.867065,167.630020 326.953857,158.998627 324.285431,150.293823 
	C324.684631,150.148483 324.839050,150.076553 324.993500,150.004639 
	C326.557434,150.697113 328.121338,151.389603 329.940308,152.374542 
	C330.373535,153.021591 330.551788,153.376160 330.868958,154.283432 
	C331.491028,156.745819 331.868835,158.689835 332.478241,160.558350 
	C333.951477,165.075348 335.532837,169.557114 337.070587,174.053070 
z"/>
<path fill="#2DB1D8" opacity="1.000000" stroke="none" 
	d="
M205.031387,205.312195 
	C213.514557,206.035812 221.973587,207.045898 230.375473,208.408325 
	C231.929352,208.660278 233.252518,210.335159 234.852325,211.659210 
	C234.517197,212.521652 234.011887,213.078201 233.102081,213.723251 
	C232.448715,213.886688 232.200287,213.963165 231.952301,214.041183 
	C231.952301,214.041183 232.061218,213.922989 232.124481,213.972931 
	C223.354996,212.378464 214.522232,210.734085 205.270996,209.033813 
	C204.897522,207.891998 204.942535,206.806076 205.031387,205.312195 
z"/>
<path fill="#56AAC5" opacity="1.000000" stroke="none" 
	d="
M235.874603,318.853577 
	C235.747406,319.385071 235.620209,319.916565 234.922821,320.714996 
	C233.607864,320.674744 232.846649,320.080688 232.121887,320.122253 
	C230.761429,320.200256 229.422028,320.645782 228.073868,320.938477 
	C229.069366,321.698181 229.982132,322.624390 231.083237,323.171631 
	C232.221695,323.737396 233.543060,323.935181 234.784409,324.293945 
	C236.401840,327.531036 237.267700,331.161926 233.154831,332.644562 
	C230.080994,333.752563 225.856445,334.766479 224.425385,329.331665 
	C225.936722,329.046875 227.178558,329.506256 228.362640,329.387878 
	C229.593552,329.264832 230.768646,328.583405 231.968140,328.146179 
	C231.053253,327.431122 230.225418,326.534241 229.202667,326.044312 
	C227.734421,325.340973 226.124115,324.934174 224.574448,324.400787 
	C223.317078,317.404541 224.558990,316.018280 232.742676,316.179718 
	C233.839890,316.657410 234.334534,316.911224 234.829178,317.165039 
	C234.829178,317.165039 234.952072,317.089508 234.995941,317.435486 
	C235.318069,318.138824 235.596344,318.496185 235.874603,318.853577 
z"/>
<path fill="#53AAC0" opacity="1.000000" stroke="none" 
	d="
M144.732117,316.474274 
	C144.974136,316.920898 145.216141,317.367554 145.690369,318.266479 
	C145.988098,319.147736 146.053619,319.576721 146.119141,320.005707 
	C146.119141,320.005707 145.997238,320.450836 145.587189,320.666992 
	C144.130173,320.477814 143.085175,319.759918 142.035675,319.753235 
	C140.940231,319.746338 139.840439,320.424438 138.742554,320.803070 
	C139.509628,321.595856 140.144684,322.644196 141.073456,323.123993 
	C142.627289,323.926758 144.368637,324.366547 146.031082,324.959106 
	C146.112564,325.109131 146.194046,325.259216 146.343750,326.027039 
	C145.619522,328.801758 144.827087,330.958740 144.034668,333.115692 
	C141.928909,333.049622 139.594040,333.509399 137.800095,332.727753 
	C136.654129,332.228455 136.308258,329.892944 136.188263,327.997925 
	C136.282318,326.608551 135.791763,325.601959 135.301224,324.595367 
	C134.136124,318.298859 134.860855,317.009979 140.839188,315.927216 
	C141.679550,315.891998 141.858261,315.852692 142.036972,315.813354 
	C142.469315,315.880280 142.901657,315.947235 143.821686,316.191589 
	C144.309357,316.369019 144.732117,316.474274 144.732117,316.474274 
M142.146622,327.223816 
	C141.608276,327.122406 141.069931,327.020996 139.889542,326.474213 
	C139.450607,327.238983 139.011673,328.003723 138.572723,328.768494 
	C139.909225,328.506531 141.245728,328.244568 142.146622,327.223816 
z"/>
<path fill="#2889A5" opacity="1.000000" stroke="none" 
	d="
M324.723450,149.804153 
	C324.839050,150.076553 324.684631,150.148483 323.919922,150.215210 
	C320.188019,149.577530 318.349976,150.420624 318.907104,154.484497 
	C317.848175,163.712280 322.149231,171.324417 324.210846,179.422684 
	C321.703583,179.760117 319.196320,180.097549 316.391510,180.326416 
	C316.505341,177.175659 317.196869,174.140030 317.268494,171.089844 
	C317.407593,165.163757 317.085449,159.227249 317.202118,153.299942 
	C317.237762,151.488815 318.083008,149.693634 318.557465,147.891144 
	C320.522766,148.461975 322.488098,149.032822 324.723450,149.804153 
z"/>
<path fill="#185366" opacity="1.000000" stroke="none" 
	d="
M430.977234,278.854919 
	C428.202759,279.151825 425.535400,278.980255 422.897339,279.185364 
	C421.755157,279.274109 420.673340,280.139679 419.564117,280.652374 
	C420.586029,281.427368 421.566986,282.266632 422.645264,282.953064 
	C423.282715,283.358856 424.074066,283.522888 425.186615,283.943085 
	C423.200623,287.726746 420.191650,287.653076 417.546356,286.255219 
	C414.044617,284.404877 413.715576,280.915039 415.166504,277.571136 
	C416.576996,274.320435 419.424683,273.417114 422.635742,274.786163 
	C425.236176,275.894867 427.664551,278.515198 430.182465,274.290527 
	C430.540436,275.465942 430.818359,277.002563 430.977234,278.854919 
z"/>
<path fill="#4BBADA" opacity="1.000000" stroke="none" 
	d="
M284.001099,180.185776 
	C280.182373,182.840515 277.114227,180.659485 273.745209,178.467102 
	C279.768829,176.475601 281.203430,167.434128 289.750244,169.055984 
	C289.299347,170.803223 288.415802,172.543335 287.190308,174.626724 
	C286.705627,175.108948 286.677185,175.268265 286.763031,175.447937 
	C286.433655,176.038696 286.104248,176.629456 285.328705,177.653641 
	C284.588745,178.786652 284.294922,179.486206 284.001099,180.185776 
z"/>
<path fill="#4BBADA" opacity="1.000000" stroke="none" 
	d="
M235.344116,132.503784 
	C235.927231,131.421097 236.302124,130.599838 236.648895,129.496887 
	C239.120804,129.615692 241.620865,130.016159 244.120911,130.416626 
	C242.820297,132.697739 241.987793,135.521774 240.113617,137.137650 
	C237.001923,139.820480 233.220871,141.726944 229.327789,143.966003 
	C230.434082,141.197723 231.934341,138.423889 233.784271,135.318634 
	C234.133942,134.987198 234.207047,134.538803 234.207062,134.538818 
	C234.516678,133.947617 234.826279,133.356415 235.344116,132.503784 
z"/>
<path fill="#4BADCC" opacity="1.000000" stroke="none" 
	d="
M269.561035,121.162460 
	C270.644867,123.147324 271.307892,125.340523 271.970917,127.533722 
	C269.657837,127.447197 266.523254,128.300217 265.169464,127.116539 
	C258.143616,120.973488 249.551926,124.137154 241.454498,122.344131 
	C248.476791,122.055908 255.870560,121.948982 263.263000,121.782944 
	C265.224152,121.738899 267.181274,121.513138 269.561035,121.162460 
z"/>
<path fill="#50A4BD" opacity="1.000000" stroke="none" 
	d="
M401.346863,314.566528 
	C401.410126,313.766785 401.487701,313.295990 401.586517,312.696289 
	C403.831390,316.933350 405.167419,326.475464 404.005463,330.634521 
	C403.777893,331.449066 402.926270,332.089264 402.362488,332.809875 
	C401.646118,332.071686 400.289368,331.309845 400.315613,330.599060 
	C400.509094,325.358795 400.978577,320.128754 401.346863,314.566528 
z"/>
<path fill="#49B6D7" opacity="1.000000" stroke="none" 
	d="
M294.690918,146.085129 
	C293.296967,148.633026 291.538757,151.121033 289.730988,153.679230 
	C285.611023,149.781906 284.523773,141.957870 287.009949,135.983734 
	C289.553131,139.098373 291.939911,142.561813 294.690918,146.085129 
z"/>
<path fill="#4BBADA" opacity="1.000000" stroke="none" 
	d="
M251.312164,188.027130 
	C249.821655,187.260605 248.155243,186.705399 247.819092,185.703751 
	C247.243759,183.989410 247.501099,181.995636 247.408768,180.119202 
	C249.105194,180.125702 250.989883,179.653473 252.461258,180.232193 
	C256.242554,181.719421 259.840515,183.672729 264.958862,186.136261 
	C261.010162,186.742584 258.413147,187.141342 255.450775,187.653839 
	C253.968506,187.857590 252.851624,187.947601 251.312164,188.027130 
z"/>
<path fill="#50A4BD" opacity="1.000000" stroke="none" 
	d="
M358.322845,325.037048 
	C358.560425,322.473511 358.328857,320.125671 359.197571,318.302063 
	C359.780609,317.078278 361.922913,316.597321 363.574615,315.667419 
	C363.084686,321.033752 362.829498,325.203369 362.250885,329.327545 
	C362.078003,330.559906 361.000488,331.665405 360.337494,332.829041 
	C359.668610,331.706360 358.734955,330.655670 358.404602,329.440948 
	C358.067963,328.203308 358.324860,326.804199 358.322845,325.037048 
z"/>
<path fill="#49B6D7" opacity="1.000000" stroke="none" 
	d="
M226.286438,164.235321 
	C227.407425,161.553329 228.913177,158.967300 230.418930,156.381271 
	C230.905838,156.476013 231.392731,156.570755 231.879639,156.665497 
	C233.216507,161.445877 234.622543,166.209793 235.772369,171.034744 
	C235.875717,171.468399 234.322754,172.296768 233.215057,172.964890 
	C230.817810,170.102386 228.744507,167.216827 226.286438,164.235321 
z"/>
<path fill="#2290B1" opacity="1.000000" stroke="none" 
	d="
M228.227234,202.496674 
	C223.069489,201.815857 217.708588,200.750748 212.304611,199.992920 
	C210.652573,199.761246 208.882202,200.373520 206.848633,200.781799 
	C207.643753,198.369141 208.756256,195.773987 210.171509,193.061005 
	C216.318695,196.038956 222.163116,199.134750 228.227234,202.496674 
z"/>
<path fill="#50A4BD" opacity="1.000000" stroke="none" 
	d="
M94.222351,332.261536 
	C92.978752,331.921753 91.129272,331.378906 91.075462,330.694763 
	C90.789787,327.062744 90.629532,323.355621 91.068550,319.752869 
	C91.407570,316.970734 93.326721,315.422852 96.230644,316.417175 
	C95.618134,321.760284 95.031609,326.876770 94.222351,332.261536 
z"/>
<path fill="#238AA9" opacity="1.000000" stroke="none" 
	d="
M283.741333,207.366180 
	C279.718384,212.102432 275.357635,216.903030 270.673340,221.733002 
	C269.566315,220.413330 268.782898,219.064270 268.006409,217.373840 
	C273.143402,213.831802 278.273468,210.631165 283.741333,207.366180 
z"/>
<path fill="#238AA9" opacity="1.000000" stroke="none" 
	d="
M237.274597,102.575775 
	C241.211304,98.177002 245.490814,93.720490 249.965210,88.950226 
	C251.145737,89.924072 252.131378,91.211670 253.151031,92.796356 
	C247.995834,96.234970 242.806625,99.376503 237.274597,102.575775 
z"/>
<path fill="#1B5A6C" opacity="1.000000" stroke="none" 
	d="
M482.176880,281.133789 
	C484.112549,281.502655 486.268127,281.930542 488.037781,282.998138 
	C489.105255,283.642120 489.572968,285.280334 490.310211,286.471771 
	C488.902832,286.447021 487.467163,286.582611 486.098145,286.340759 
	C485.198303,286.181793 484.394653,285.478210 483.227142,284.869080 
	C482.682281,283.633850 482.458221,282.548126 482.176880,281.133789 
z"/>
<path fill="#1B5A6C" opacity="1.000000" stroke="none" 
	d="
M146.009781,324.552185 
	C144.368637,324.366547 142.627289,323.926758 141.073456,323.123993 
	C140.144684,322.644196 139.509628,321.595856 138.742554,320.803070 
	C139.840439,320.424438 140.940231,319.746338 142.035675,319.753235 
	C143.085175,319.759918 144.130173,320.477814 145.527924,320.890015 
	C145.915283,321.979675 145.951874,323.062469 146.009781,324.552185 
z"/>
<path fill="#1B5A6C" opacity="1.000000" stroke="none" 
	d="
M224.522766,324.872498 
	C226.124115,324.934174 227.734421,325.340973 229.202667,326.044312 
	C230.225418,326.534241 231.053253,327.431122 231.968140,328.146179 
	C230.768646,328.583405 229.593552,329.264832 228.362640,329.387878 
	C227.178558,329.506256 225.936722,329.046875 224.421097,328.973145 
	C224.238327,327.851410 224.354706,326.597809 224.522766,324.872498 
z"/>
<path fill="#1B5A6C" opacity="1.000000" stroke="none" 
	d="
M234.807175,323.899750 
	C233.543060,323.935181 232.221695,323.737396 231.083237,323.171631 
	C229.982132,322.624390 229.069366,321.698181 228.073868,320.938477 
	C229.422028,320.645782 230.761429,320.200256 232.121887,320.122253 
	C232.846649,320.080688 233.607864,320.674744 234.708954,321.065948 
	C234.986847,321.935150 234.908401,322.720367 234.807175,323.899750 
z"/>
<path fill="#1B5A6C" opacity="1.000000" stroke="none" 
	d="
M144.296448,333.179138 
	C144.827087,330.958740 145.619522,328.801758 146.482544,326.242310 
	C148.269089,328.949036 148.296722,331.603271 144.296448,333.179138 
z"/>
<path fill="#185366" opacity="1.000000" stroke="none" 
	d="
M424.236450,292.020844 
	C425.422485,290.958191 426.869812,290.015900 428.634033,288.990417 
	C427.466522,289.985199 425.982117,291.063171 424.236450,292.020844 
z"/>
<path fill="#185366" opacity="1.000000" stroke="none" 
	d="
M408.442566,278.120117 
	C408.708679,279.366699 408.739319,280.800781 408.689819,282.658600 
	C408.475464,281.490753 408.341278,279.899231 408.442566,278.120117 
z"/>
<path fill="#185366" opacity="1.000000" stroke="none" 
	d="
M409.649963,286.635773 
	C410.865356,287.522003 412.063202,288.783478 413.422089,290.332397 
	C412.266235,289.416870 410.949371,288.213959 409.649963,286.635773 
z"/>
<path fill="#185366" opacity="1.000000" stroke="none" 
	d="
M431.193481,285.838745 
	C431.051605,284.559662 431.185394,283.131256 431.447083,281.291595 
	C431.539673,282.483398 431.504395,284.086395 431.193481,285.838745 
z"/>
<path fill="#185366" opacity="1.000000" stroke="none" 
	d="
M427.844360,270.848175 
	C426.764709,270.600525 425.605713,270.055389 424.208252,269.293457 
	C425.234894,269.568024 426.499939,270.059326 427.844360,270.848175 
z"/>
<path fill="#185366" opacity="1.000000" stroke="none" 
	d="
M416.761108,268.930847 
	C415.875366,269.644196 414.739502,270.242889 413.280457,270.883209 
	C414.141815,270.221985 415.326385,269.519073 416.761108,268.930847 
z"/>
<path fill="#185366" opacity="1.000000" stroke="none" 
	d="
M414.140747,291.127258 
	C414.863739,291.105591 415.692902,291.333130 416.765320,291.778687 
	C416.088043,291.789948 415.167511,291.583191 414.140747,291.127258 
z"/>
<path fill="#5BC0DF" opacity="1.000000" stroke="none" 
	d="
M289.646759,94.892426 
	C289.377045,95.467720 288.824127,96.156479 288.039429,96.857590 
	C288.326263,96.248596 288.844910,95.627243 289.646759,94.892426 
z"/>
<path fill="#1B5A6C" opacity="1.000000" stroke="none" 
	d="
M234.791016,316.943756 
	C234.334534,316.911224 233.839890,316.657410 233.168976,316.183472 
	C233.579422,316.216339 234.166153,316.469421 234.791016,316.943756 
z"/>
<path fill="#1B5A6C" opacity="1.000000" stroke="none" 
	d="
M494.798645,290.538391 
	C494.961426,289.981934 495.439789,289.340393 496.166626,288.524902 
	C495.981506,289.051697 495.547852,289.752472 494.798645,290.538391 
z"/>
<path fill="#1B5A6C" opacity="1.000000" stroke="none" 
	d="
M135.411667,325.140930 
	C135.791763,325.601959 136.282318,326.608551 136.442078,327.725281 
	C135.914902,327.119080 135.718506,326.402771 135.411667,325.140930 
z"/>
<path fill="#2889A5" opacity="1.000000" stroke="none" 
	d="
M284.302155,180.231964 
	C284.294922,179.486206 284.588745,178.786652 285.115967,177.917847 
	C285.423248,178.300980 285.497101,178.853348 285.691467,179.806580 
	C285.409088,180.231003 285.006165,180.254593 284.302155,180.231964 
z"/>
<path fill="#1B5A6C" opacity="1.000000" stroke="none" 
	d="
M479.791290,278.250916 
	C480.228546,278.488281 480.595886,278.934021 481.016968,279.670166 
	C480.620941,279.460114 480.171143,278.959717 479.791290,278.250916 
z"/>
<path fill="#185366" opacity="1.000000" stroke="none" 
	d="
M412.141022,271.358215 
	C411.945160,271.925079 411.426727,272.587341 410.625488,273.399231 
	C410.834625,272.850433 411.326538,272.151978 412.141022,271.358215 
z"/>
<path fill="#238AA9" opacity="1.000000" stroke="none" 
	d="
M290.762512,203.222137 
	C290.471558,203.639374 289.902344,204.130981 289.045898,204.681824 
	C289.333893,204.259552 289.909088,203.778046 290.762512,203.222137 
z"/>
<path fill="#185366" opacity="1.000000" stroke="none" 
	d="
M146.275452,319.886627 
	C146.053619,319.576721 145.988098,319.147736 145.913666,318.392334 
	C146.080429,318.633118 146.256088,319.200317 146.275452,319.886627 
z"/>
<path fill="#238AA9" opacity="1.000000" stroke="none" 
	d="
M288.547852,204.752197 
	C288.348419,205.041901 287.840271,205.377136 287.030640,205.773697 
	C287.232452,205.489273 287.735779,205.143509 288.547852,204.752197 
z"/>
<path fill="#2290B1" opacity="1.000000" stroke="none" 
	d="
M233.840866,205.708801 
	C233.493286,205.711441 232.958099,205.473709 232.195419,205.045441 
	C232.529709,205.059402 233.091476,205.263901 233.840866,205.708801 
z"/>
<path fill="#238AA9" opacity="1.000000" stroke="none" 
	d="
M296.977325,204.685486 
	C296.726532,204.433609 296.496338,203.861816 296.229736,202.981537 
	C296.461548,203.237213 296.729736,203.801392 296.977325,204.685486 
z"/>
<path fill="#1B5A6C" opacity="1.000000" stroke="none" 
	d="
M235.888672,318.634430 
	C235.596344,318.496185 235.318069,318.138824 234.927963,317.459229 
	C235.178329,317.563110 235.540543,317.989197 235.888672,318.634430 
z"/>
<path fill="#238AA9" opacity="1.000000" stroke="none" 
	d="
M295.783386,201.778442 
	C295.394867,201.985504 294.889282,201.927979 294.005707,201.810043 
	C294.307251,201.671036 294.986816,201.592453 295.783386,201.778442 
z"/>
<path fill="#27A2C7" opacity="1.000000" stroke="none" 
	d="
M297.717163,207.687592 
	C297.671417,207.910522 297.355652,208.174713 297.120239,207.988144 
	C296.843719,207.613373 296.802582,207.425156 296.761444,207.236923 
	C296.761444,207.236923 297.048492,206.956116 297.192444,206.815979 
	C297.592499,206.877289 297.734680,207.140244 297.717163,207.687592 
z"/>
<path fill="#185366" opacity="1.000000" stroke="none" 
	d="
M141.913269,315.731720 
	C141.858261,315.852692 141.679550,315.891998 141.231720,315.876587 
	C141.207001,315.618744 141.482666,315.561493 141.913269,315.731720 
z"/>
<path fill="#3FB9DF" opacity="1.000000" stroke="none" 
	d="
M232.215958,214.019836 
	C232.200287,213.963165 232.448715,213.886688 232.823364,213.783218 
	C232.792648,213.835953 232.636139,213.917221 232.215958,214.019836 
z"/>
<path fill="#298DA9" opacity="1.000000" stroke="none" 
	d="
M234.080521,134.568176 
	C234.207047,134.538803 234.133942,134.987198 234.020691,135.027512 
	C233.781433,134.897034 233.796936,134.740265 234.080521,134.568176 
z"/>
<path fill="#2889A5" opacity="1.000000" stroke="none" 
	d="
M286.899414,175.417603 
	C286.677185,175.268265 286.705627,175.108948 286.968933,174.924683 
	C287.221436,175.064545 287.203522,175.233841 286.899414,175.417603 
z"/>
<path fill="#185366" opacity="1.000000" stroke="none" 
	d="
M144.698425,316.349854 
	C144.732117,316.474274 144.309357,316.369019 144.148560,316.221802 
	C144.252045,315.951019 144.477722,316.001312 144.698425,316.349854 
z"/>
<path fill="#0E4253" opacity="1.000000" stroke="none" 
	d="
M266.959869,140.965851 
	C269.440063,147.870270 271.796448,154.402374 274.272552,161.266418 
	C270.814209,162.274506 268.345245,163.100220 266.470856,159.275406 
	C264.890015,156.049576 256.490997,156.236786 254.433044,159.230682 
	C252.238831,162.422867 252.238831,162.422867 246.788773,161.277344 
	C249.928543,152.671112 252.826660,144.072510 256.248993,135.687881 
	C257.513641,132.589600 263.729126,133.267929 265.222748,136.409302 
	C265.862793,137.755402 266.304321,139.195908 266.959869,140.965851 
M262.706116,151.703659 
	C262.345184,148.904266 261.984222,146.104874 261.623291,143.305481 
	C260.971191,143.342178 260.319122,143.378891 259.667023,143.415604 
	C258.854645,145.953674 258.042236,148.491745 257.032349,151.646759 
	C259.163452,151.762680 260.574890,151.839447 262.706116,151.703659 
z"/>
<path fill="#30B3DB" opacity="1.000000" stroke="none" 
	d="
M278.136505,229.179260 
	C278.632507,226.949783 278.877167,224.608017 280.108734,223.042847 
	C284.293488,217.724487 288.799896,212.656723 293.270355,207.569626 
	C293.698395,207.082550 294.732147,207.127716 295.846985,207.244537 
	C296.458984,207.990356 296.708710,208.417450 296.958435,208.844543 
	C296.945709,210.259232 296.932983,211.673904 296.604431,213.639282 
	C294.849304,215.475922 293.264435,216.633713 291.998077,218.071960 
	C288.263031,222.313904 284.654114,226.666870 280.995850,230.976425 
	C280.109711,230.458588 279.223572,229.940735 278.136505,229.179260 
z"/>
<path fill="#25A7CE" opacity="1.000000" stroke="none" 
	d="
M199.596771,160.035660 
	C196.223419,150.998627 193.193176,141.845490 190.065216,132.326721 
	C191.452606,131.679550 192.937698,131.398026 194.815964,131.151367 
	C196.501358,135.070831 197.934662,138.915543 199.046906,142.850983 
	C200.203049,146.941711 201.305313,151.084518 201.888290,155.279984 
	C202.086792,156.708679 200.636703,158.366455 199.596771,160.035660 
z"/>
<path fill="#35B6DC" opacity="1.000000" stroke="none" 
	d="
M224.988846,103.166000 
	C224.806335,103.052544 224.623840,102.939079 224.190002,102.618156 
	C223.986130,99.589127 224.033600,96.767563 224.425385,93.430191 
	C227.317581,90.423515 229.893005,87.960022 232.405579,85.434006 
	C234.893463,82.932838 236.569855,79.202652 241.083527,79.878937 
	C242.215347,80.758263 243.347168,81.637596 244.125946,82.904297 
	C237.511566,89.916443 231.250214,96.541222 224.988846,103.166000 
z"/>
<path fill="#27A4CB" opacity="1.000000" stroke="none" 
	d="
M314.076172,109.819244 
	C306.351654,107.592033 297.846222,109.844292 290.768829,105.358131 
	C289.131287,104.320152 287.708252,102.943825 286.040100,101.424248 
	C295.393250,102.430504 304.892761,103.735687 314.868774,105.052666 
	C314.995850,106.543800 314.646393,108.023140 314.076172,109.819244 
z"/>
<path fill="#44BCE0" opacity="1.000000" stroke="none" 
	d="
M281.338043,231.141846 
	C284.654114,226.666870 288.263031,222.313904 291.998077,218.071960 
	C293.264435,216.633713 294.849304,215.475922 296.597778,214.063599 
	C297.371521,219.856644 296.456482,225.566895 291.214996,228.964691 
	C288.620728,230.646423 284.894409,230.581787 281.338043,231.141846 
z"/>
<path fill="#27A2C7" opacity="1.000000" stroke="none" 
	d="
M324.603119,179.378143 
	C322.149231,171.324417 317.848175,163.712280 319.221985,154.633179 
	C320.818207,156.357330 322.375610,158.264877 323.303162,160.440903 
	C325.815369,166.334290 328.060089,172.341675 330.410889,178.303848 
	C328.605713,178.647110 326.800568,178.990356 324.603119,179.378143 
z"/>
<path fill="#44BCE0" opacity="1.000000" stroke="none" 
	d="
M316.809509,99.764343 
	C309.114014,98.530457 301.403687,96.928368 293.351257,95.165421 
	C300.619904,87.989891 315.527252,91.057053 316.809509,99.764343 
z"/>
<path fill="#44BCE0" opacity="1.000000" stroke="none" 
	d="
M184.655167,134.144257 
	C186.229660,138.477142 187.600143,142.962234 188.739700,147.505264 
	C189.365005,149.998062 189.600922,152.588547 190.010590,155.567444 
	C179.783722,150.922531 177.204788,141.033997 184.655167,134.144257 
z"/>
<path fill="#2BAED4" opacity="1.000000" stroke="none" 
	d="
M330.665924,178.175568 
	C328.060089,172.341675 325.815369,166.334290 323.303162,160.440903 
	C322.375610,158.264877 320.818207,156.357330 319.233124,154.178650 
	C318.349976,150.420624 320.188019,149.577530 323.675140,150.288620 
	C326.953857,158.998627 329.867065,167.630020 332.868408,176.610168 
	C332.278015,177.321716 331.599487,177.684509 330.665924,178.175568 
z"/>
<path fill="#2BAED4" opacity="1.000000" stroke="none" 
	d="
M225.160339,103.395660 
	C231.250214,96.541222 237.511566,89.916443 244.136810,83.165482 
	C244.500687,83.039291 244.416870,83.294144 244.362137,83.410355 
	C242.526855,86.299133 240.834076,89.133362 238.941498,91.827209 
	C236.974304,94.627304 234.874374,97.340652 232.719788,100.000626 
	C230.845474,102.314560 229.305481,105.509537 225.160339,103.395660 
z"/>
<path fill="#44BCE0" opacity="1.000000" stroke="none" 
	d="
M337.373566,173.860962 
	C335.532837,169.557114 333.951477,165.075348 332.478241,160.558350 
	C331.868835,158.689835 331.491028,156.745819 330.992554,154.439331 
	C339.357574,158.003952 342.499084,167.207275 337.373566,173.860962 
z"/>
<path fill="#44BCE0" opacity="1.000000" stroke="none" 
	d="
M240.840515,79.614700 
	C236.569855,79.202652 234.893463,82.932838 232.405579,85.434006 
	C229.893005,87.960022 227.317581,90.423515 224.432388,92.987640 
	C224.271744,86.283020 227.874069,81.528473 233.634430,78.709953 
	C235.422836,77.834908 238.247345,79.077415 240.840515,79.614700 
z"/>
<path fill="#44BCE0" opacity="1.000000" stroke="none" 
	d="
M296.973022,208.727676 
	C296.708710,208.417450 296.458984,207.990356 296.123291,207.330231 
	C296.037262,207.097183 296.402527,207.154510 296.581970,207.195709 
	C296.802582,207.425156 296.843719,207.613373 296.940552,208.088501 
	C296.996216,208.375427 296.987610,208.610809 296.973022,208.727676 
z"/>
<path fill="#0E4253" opacity="1.000000" stroke="none" 
	d="
M98.301590,282.428589 
	C98.302002,276.668823 100.355568,273.956207 104.148758,274.195923 
	C107.667297,274.418274 110.261543,277.870453 109.112228,281.775177 
	C108.557693,283.659180 106.707443,285.861420 104.924034,286.527374 
	C101.915031,287.650940 99.563820,285.853699 98.301590,282.428589 
z"/>
<path fill="#0E4253" opacity="1.000000" stroke="none" 
	d="
M388.958435,286.868530 
	C386.815613,285.569214 384.246765,284.615814 383.494507,282.876617 
	C382.055176,279.548981 382.964905,276.155365 386.714050,274.595398 
	C390.116211,273.179810 392.551086,274.768860 393.856934,277.993347 
	C395.424866,281.865021 393.791687,284.943237 388.958435,286.868530 
z"/>
<path fill="#104555" opacity="1.000000" stroke="none" 
	d="
M340.494110,283.202972 
	C338.785370,286.402649 336.194214,287.917694 333.416107,286.334381 
	C331.626984,285.314758 330.009033,282.776550 329.673309,280.699310 
	C329.115417,277.247894 330.988586,274.476685 334.801300,274.216095 
	C338.579742,273.957855 340.491852,276.314026 340.900238,279.901276 
	C341.008911,280.855682 340.728210,281.854462 340.494110,283.202972 
z"/>
<path fill="#185366" opacity="1.000000" stroke="none" 
	d="
M74.644989,274.006165 
	C75.687759,275.294678 76.365463,276.548157 77.043167,277.801605 
	C75.755608,278.326782 74.483727,279.169281 73.173409,279.234100 
	C72.579079,279.263489 71.205963,277.348877 71.399719,277.009949 
	C72.072708,275.832886 73.277458,274.959808 74.644989,274.006165 
z"/>
<path fill="#0B3543" opacity="1.000000" stroke="none" 
	d="
M314.829193,328.657776 
	C313.714386,328.677673 312.919922,328.383545 312.125458,328.089417 
	C312.410370,327.640442 312.695282,327.191467 312.980194,326.742493 
	C313.703308,327.276245 314.426422,327.809998 314.829193,328.657776 
z"/>
<path fill="#1B5A6C" opacity="1.000000" stroke="none" 
	d="
M142.582230,327.982574 
	C141.245728,328.244568 139.909225,328.506531 138.572723,328.768494 
	C139.011673,328.003723 139.450607,327.238983 140.549454,326.878784 
	C141.666992,327.516449 142.124603,327.749512 142.582230,327.982574 
z"/>
<path fill="#185366" opacity="1.000000" stroke="none" 
	d="
M142.364426,327.603210 
	C142.124603,327.749512 141.666992,327.516449 140.870483,327.101501 
	C141.069931,327.020996 141.608276,327.122406 142.364426,327.603210 
z"/>
<path fill="#53A8C3" opacity="1.000000" stroke="none" 
	d="
M262.346222,151.809937 
	C260.574890,151.839447 259.163452,151.762680 257.032349,151.646759 
	C258.042236,148.491745 258.854645,145.953674 259.667023,143.415604 
	C260.319122,143.378891 260.971191,143.342178 261.623291,143.305481 
	C261.984222,146.104874 262.345184,148.904266 262.346222,151.809937 
z"/>
</svg>